<svg xmlns="http://www.w3.org/2000/svg" xmlns:xlink="http://www.w3.org/1999/xlink" aria-hidden="true" style="position: absolute; width: 0; height: 0; overflow: hidden;" version="1.1">
    <defs>
        <symbol id="icon-loader" viewBox="0 0 32 32">
            <path d="M22.986 8.918c0.459 0.385 1.041 0.597 1.639 0.597 0.759 0 1.472-0.333 1.96-0.913 0.905-1.079 0.764-2.694-0.315-3.6-0.459-0.385-1.042-0.598-1.64-0.598-0.758 0-1.472 0.333-1.959 0.913-0.906 1.079-0.764 2.694 0.315 3.6z"/>
            <path d="M29.016 11.842c-0.158 0-0.319 0.014-0.475 0.042-1.471 0.259-2.458 1.669-2.199 3.141 0.228 1.298 1.349 2.239 2.664 2.239 0.158 0 0.319-0.014 0.476-0.041 1.471-0.26 2.458-1.669 2.198-3.14-0.229-1.298-1.35-2.24-2.664-2.24z"/>
            <path d="M28.922 20.706c-0.436-0.252-0.93-0.384-1.428-0.384-1.023 0-1.976 0.55-2.486 1.434-0.382 0.662-0.485 1.434-0.286 2.173s0.673 1.358 1.335 1.74c0.436 0.252 0.93 0.385 1.429 0.385 1.022 0 1.975-0.549 2.485-1.433 0.789-1.369 0.319-3.125-1.049-3.915z"/>
            <path d="M20.772 25.801c-0.351 0-0.699 0.062-1.033 0.183-0.758 0.276-1.362 0.831-1.704 1.562s-0.377 1.551-0.101 2.31c0.433 1.19 1.574 1.989 2.839 1.989 0.351 0 0.699-0.062 1.032-0.183 0.757-0.276 1.361-0.83 1.703-1.563s0.377-1.552 0.102-2.309c-0.432-1.189-1.574-1.989-2.839-1.989z"/>
            <path d="M13.091 25.838c-0.352-0.128-0.718-0.193-1.086-0.193-1.33 0-2.529 0.841-2.984 2.091-0.291 0.798-0.253 1.66 0.106 2.429s0.994 1.352 1.792 1.642c0.352 0.128 0.717 0.193 1.087 0.193 1.331 0 2.53-0.841 2.984-2.090 0.29-0.796 0.252-1.658-0.107-2.428s-0.995-1.354-1.791-1.644z"/>
            <path d="M8.174 21.521c-0.594-1.028-1.7-1.666-2.889-1.666-0.581 0-1.155 0.155-1.662 0.447-0.771 0.445-1.322 1.164-1.552 2.023s-0.113 1.757 0.333 2.528c0.594 1.028 1.701 1.667 2.889 1.667 0.581 0 1.155-0.155 1.662-0.447 1.59-0.918 2.138-2.96 1.22-4.551z"/>
            <path d="M3.771 18.041c1.692 0 3.135-1.212 3.429-2.882 0.161-0.918-0.044-1.843-0.578-2.605s-1.333-1.272-2.251-1.434c-0.203-0.035-0.409-0.053-0.61-0.053-1.692 0-3.135 1.212-3.429 2.882-0.161 0.917 0.044 1.842 0.578 2.605s1.334 1.272 2.251 1.434c0.202 0.036 0.408 0.054 0.61 0.054z"/>
            <path d="M8.152 10.603c0.853 0 1.683-0.303 2.339-0.852 0.744-0.624 1.2-1.503 1.285-2.473s-0.212-1.915-0.837-2.659c-0.694-0.827-1.712-1.301-2.792-1.301-0.854 0-1.685 0.302-2.339 0.852-0.745 0.625-1.202 1.504-1.287 2.473s0.213 1.913 0.838 2.659c0.695 0.827 1.712 1.301 2.793 1.301z"/>
            <path d="M20.351 3.962c0 2.188-1.774 3.962-3.962 3.962s-3.962-1.774-3.962-3.962c0-2.188 1.774-3.962 3.962-3.962s3.962 1.774 3.962 3.962z"/>
        </symbol>
        <symbol id="icon-instagram" viewBox="0 0 32 32">
            <path d="M16 2.881c4.275 0 4.781 0.019 6.462 0.094 1.563 0.069 2.406 0.331 2.969 0.55 0.744 0.288 1.281 0.638 1.837 1.194 0.563 0.563 0.906 1.094 1.2 1.838 0.219 0.563 0.481 1.412 0.55 2.969 0.075 1.688 0.094 2.194 0.094 6.463s-0.019 4.781-0.094 6.463c-0.069 1.563-0.331 2.406-0.55 2.969-0.288 0.744-0.637 1.281-1.194 1.837-0.563 0.563-1.094 0.906-1.837 1.2-0.563 0.219-1.413 0.481-2.969 0.55-1.688 0.075-2.194 0.094-6.463 0.094s-4.781-0.019-6.463-0.094c-1.563-0.069-2.406-0.331-2.969-0.55-0.744-0.288-1.281-0.637-1.838-1.194-0.563-0.563-0.906-1.094-1.2-1.837-0.219-0.563-0.481-1.413-0.55-2.969-0.075-1.688-0.094-2.194-0.094-6.463s0.019-4.781 0.094-6.463c0.069-1.563 0.331-2.406 0.55-2.969 0.288-0.744 0.638-1.281 1.194-1.838 0.563-0.563 1.094-0.906 1.838-1.2 0.563-0.219 1.412-0.481 2.969-0.55 1.681-0.075 2.188-0.094 6.463-0.094zM16 0c-4.344 0-4.887 0.019-6.594 0.094-1.7 0.075-2.869 0.35-3.881 0.744-1.056 0.412-1.95 0.956-2.837 1.85-0.894 0.888-1.438 1.781-1.85 2.831-0.394 1.019-0.669 2.181-0.744 3.881-0.075 1.713-0.094 2.256-0.094 6.6s0.019 4.887 0.094 6.594c0.075 1.7 0.35 2.869 0.744 3.881 0.413 1.056 0.956 1.95 1.85 2.837 0.887 0.887 1.781 1.438 2.831 1.844 1.019 0.394 2.181 0.669 3.881 0.744 1.706 0.075 2.25 0.094 6.594 0.094s4.888-0.019 6.594-0.094c1.7-0.075 2.869-0.35 3.881-0.744 1.050-0.406 1.944-0.956 2.831-1.844s1.438-1.781 1.844-2.831c0.394-1.019 0.669-2.181 0.744-3.881 0.075-1.706 0.094-2.25 0.094-6.594s-0.019-4.887-0.094-6.594c-0.075-1.7-0.35-2.869-0.744-3.881-0.394-1.063-0.938-1.956-1.831-2.844-0.887-0.887-1.781-1.438-2.831-1.844-1.019-0.394-2.181-0.669-3.881-0.744-1.712-0.081-2.256-0.1-6.6-0.1v0z"/>
            <path d="M16 7.781c-4.537 0-8.219 3.681-8.219 8.219s3.681 8.219 8.219 8.219 8.219-3.681 8.219-8.219c0-4.537-3.681-8.219-8.219-8.219zM16 21.331c-2.944 0-5.331-2.387-5.331-5.331s2.387-5.331 5.331-5.331c2.944 0 5.331 2.387 5.331 5.331s-2.387 5.331-5.331 5.331z"/>
            <path d="M26.462 7.456c0 1.060-0.859 1.919-1.919 1.919s-1.919-0.859-1.919-1.919c0-1.060 0.859-1.919 1.919-1.919s1.919 0.859 1.919 1.919z"/>
        </symbol>
        <symbol id="icon-youtube" viewBox="0 0 32 32">
            <path d="M31.681 9.6c0 0-0.313-2.206-1.275-3.175-1.219-1.275-2.581-1.281-3.206-1.356-4.475-0.325-11.194-0.325-11.194-0.325h-0.012c0 0-6.719 0-11.194 0.325-0.625 0.075-1.987 0.081-3.206 1.356-0.963 0.969-1.269 3.175-1.269 3.175s-0.319 2.588-0.319 5.181v2.425c0 2.587 0.319 5.181 0.319 5.181s0.313 2.206 1.269 3.175c1.219 1.275 2.819 1.231 3.531 1.369 2.563 0.244 10.881 0.319 10.881 0.319s6.725-0.012 11.2-0.331c0.625-0.075 1.988-0.081 3.206-1.356 0.962-0.969 1.275-3.175 1.275-3.175s0.319-2.587 0.319-5.181v-2.425c-0.006-2.588-0.325-5.181-0.325-5.181zM12.694 20.15v-8.994l8.644 4.513-8.644 4.481z"/>
        </symbol>
        <symbol id="icon-facebook" viewBox="0 0 32 32">
            <path d="M19 6h5v-6h-5c-3.86 0-7 3.14-7 7v3h-4v6h4v16h6v-16h5l1-6h-6v-3c0-0.542 0.458-1 1-1z"/>
        </symbol>
        <symbol id="icon-user" viewBox="0 0 27 32">
            <path d="M5.732 8c0 1.582 0.468 3.129 1.345 4.445s2.124 2.341 3.583 2.947c1.459 0.605 3.064 0.764 4.613 0.455s2.971-1.071 4.088-2.189c1.117-1.119 1.877-2.544 2.185-4.096s0.15-3.16-0.454-4.622c-0.604-1.462-1.628-2.711-2.941-3.59s-2.856-1.348-4.436-1.348c-2.117 0-4.148 0.843-5.645 2.343s-2.338 3.535-2.338 5.657z"/>
            <path d="M27.429 32h-27.429v-5.714c0.003-2.121 1.015-4.154 2.815-5.654s4.24-2.343 6.785-2.346h8.229c2.545 0.002 4.985 0.846 6.785 2.346s2.812 3.533 2.815 5.654v5.714z"/>
        </symbol>
        <symbol id="icon-eye" viewBox="0 0 20 20">
            <path d="M0.2 10c1.86-3.592 5.548-6.004 9.8-6.004s7.94 2.412 9.771 5.943l0.029 0.061c-1.86 3.592-5.548 6.004-9.8 6.004s-7.94-2.412-9.771-5.943l-0.029-0.061zM10 14c2.209 0 4-1.791 4-4s-1.791-4-4-4v0c-2.209 0-4 1.791-4 4s1.791 4 4 4v0zM10 12c-1.105 0-2-0.895-2-2s0.895-2 2-2v0c1.105 0 2 0.895 2 2s-0.895 2-2 2v0z"/>
        </symbol>
        <symbol id="icon-search" viewBox="0 0 32 32">
            <path d="M22.154 13.538c0-2.372-0.843-4.401-2.529-6.087s-3.715-2.529-6.087-2.529c-2.372 0-4.401 0.843-6.087 2.529s-2.529 3.715-2.529 6.087c0 2.372 0.843 4.401 2.529 6.087s3.715 2.529 6.087 2.529c2.372 0 4.401-0.843 6.087-2.529s2.529-3.715 2.529-6.087zM32 29.538c0 0.666-0.244 1.243-0.731 1.731s-1.064 0.731-1.731 0.731c-0.692 0-1.269-0.244-1.731-0.731l-6.596-6.577c-2.295 1.59-4.853 2.385-7.673 2.385-1.833 0-3.587-0.356-5.26-1.067s-3.115-1.673-4.327-2.885c-1.212-1.212-2.173-2.654-2.885-4.327s-1.067-3.426-1.067-5.26c0-1.833 0.356-3.587 1.067-5.26s1.673-3.115 2.885-4.327c1.212-1.212 2.654-2.173 4.327-2.885s3.426-1.067 5.26-1.067c1.833 0 3.587 0.356 5.26 1.067s3.115 1.673 4.327 2.885c1.211 1.212 2.173 2.654 2.885 4.327s1.067 3.426 1.067 5.26c0 2.82-0.795 5.378-2.385 7.673l6.596 6.596c0.474 0.474 0.712 1.051 0.712 1.731z"/>
        </symbol>
        <symbol id="icon-logo" viewBox="0 0 30 32">
            <path d="M28.978 18.229l-25.262 13.47c-1.683 0.897-3.715-0.322-3.715-2.229v-26.941c0-1.907 2.032-3.127 3.715-2.229l25.262 13.47c1.784 0.951 1.784 3.507 0 4.458zM10.024 23.133l8.918-4.755c1.982-1.057 1.982-3.699 0-4.755l-8.918-4.755c-1.982-1.057-4.459 0.264-4.459 2.378v9.511c0 2.114 2.477 3.434 4.459 2.378z"/>
        </symbol>
        <symbol id="icon-window" viewBox="0 0 32 32">
            <path fill="#eaeaea" d="M13.43 4.221l-11.653 1.532v9.689h11.653v-11.221zM1.777 26.301l11.653 1.659v-11.405h-11.653v9.746zM14.715 16.701l0.046 11.339 15.46 2.181v-13.52h-15.506zM30.221 1.777l-15.413 2.212v11.403h15.413v-13.614z"/>
        </symbol>
        <symbol id="icon-gamepad" viewBox="0 0 38 32">
            <path fill="#eaeaea" style="fill: var(--color1, #eaeaea)" d="M31.42 6.918h-3.757c-1.394 0-2.694 0.464-3.686 1.302-0.532 0.454-1.264 0.717-2.008 0.717h-1.878v-7.064c0-0.555-0.532-1.009-1.181-1.009s-1.181 0.454-1.181 1.009v9.082l-0.591-2.018h-1.288c-0.744 0-1.477-0.262-2.008-0.717-0.992-0.837-2.292-1.302-3.686-1.302h-3.757c-2.871 0-5.21 1.998-5.21 4.45v16.206c0 1.968 1.867 3.562 4.17 3.562 1.501 0 2.883-0.686 3.627-1.796l1.566-2.345c-0.992-1.085-1.094-1.913-1.094-1.913 0.345 0.946 1.347 1.534 1.347 1.534 0.662 0.303 1.406 0.484 2.197 0.484 2.198 0 4.029-1.291 4.56-3.027h2.694c0.532 1.736 2.363 3.027 4.56 3.027 0.792 0 1.536-0.182 2.198-0.484 0 0 1.002-0.588 1.347-1.534 0 0-0.102 0.828-1.094 1.913l1.566 2.345c0.744 1.11 2.127 1.796 3.627 1.796 2.304 0 4.17-1.594 4.17-3.562v-16.206c0-2.452-2.339-4.45-5.21-4.45zM9.458 18.018c-0.65 0-1.181-0.454-1.181-1.009v-1.009h-1.181c-0.65 0-1.181-0.454-1.181-1.009s0.532-1.009 1.181-1.009h1.181v-1.009c0-0.555 0.532-1.009 1.181-1.009s1.181 0.454 1.181 1.009v1.009h1.181c0.65 0 1.181 0.454 1.181 1.009s-0.532 1.009-1.181 1.009h-1.181v1.009c0 0.555-0.532 1.009-1.181 1.009zM13.002 25.082c-1.3 0-2.363-0.908-2.363-2.018s1.063-2.018 2.363-2.018c1.3 0 2.363 0.908 2.363 2.018s-1.063 2.018-2.363 2.018zM27.521 12.256c0.437-0.373 1.241-0.373 1.678 0 0.212 0.192 0.343 0.454 0.343 0.717 0 0.071-0.012 0.131-0.024 0.202-0.012 0.061-0.035 0.121-0.071 0.182-0.024 0.061-0.059 0.121-0.106 0.182-0.047 0.050-0.094 0.101-0.142 0.151-0.224 0.182-0.52 0.293-0.839 0.293-0.307 0-0.615-0.111-0.839-0.293-0.212-0.192-0.343-0.444-0.343-0.717 0-0.262 0.13-0.525 0.343-0.717v0zM24.91 14.607c0.059-0.121 0.142-0.232 0.248-0.333 0.059-0.040 0.118-0.081 0.177-0.121 0.071-0.040 0.142-0.071 0.212-0.091 0.071-0.030 0.142-0.050 0.213-0.061 0.236-0.040 0.473-0.020 0.685 0.061 0.142 0.050 0.272 0.121 0.39 0.212 0.106 0.101 0.189 0.212 0.248 0.333s0.095 0.252 0.095 0.383c0 0.262-0.13 0.525-0.343 0.716-0.118 0.091-0.248 0.161-0.39 0.212-0.142 0.060-0.296 0.081-0.449 0.081-0.083 0-0.153-0.010-0.236-0.020-0.071-0.010-0.142-0.030-0.212-0.061-0.071-0.020-0.142-0.050-0.212-0.091-0.059-0.030-0.118-0.081-0.177-0.121-0.213-0.191-0.343-0.454-0.343-0.716 0-0.131 0.035-0.262 0.094-0.383v0zM24.816 25.082c-1.3 0-2.363-0.908-2.363-2.018s1.063-2.018 2.363-2.018c1.3 0 2.363 0.908 2.363 2.018s-1.063 2.018-2.363 2.018zM29.518 17.201c-0.012 0.071-0.035 0.131-0.071 0.192-0.024 0.061-0.059 0.121-0.106 0.182-0.035 0.050-0.094 0.101-0.142 0.151-0.118 0.091-0.248 0.162-0.39 0.212-0.142 0.061-0.295 0.081-0.449 0.081s-0.307-0.020-0.449-0.081c-0.142-0.050-0.272-0.121-0.39-0.212-0.213-0.192-0.343-0.454-0.343-0.716 0-0.131 0.035-0.262 0.094-0.383 0.059-0.131 0.142-0.232 0.248-0.333 0.118-0.091 0.248-0.161 0.39-0.212 0.284-0.111 0.614-0.101 0.898 0 0.142 0.050 0.272 0.121 0.39 0.212 0.106 0.101 0.189 0.212 0.248 0.333 0.071 0.121 0.095 0.252 0.095 0.383 0 0.061-0.012 0.131-0.024 0.192v0zM31.562 15.707c-0.118 0.091-0.248 0.161-0.39 0.212-0.142 0.060-0.296 0.081-0.449 0.081-0.307 0-0.614-0.111-0.839-0.293-0.212-0.192-0.343-0.454-0.343-0.716 0-0.131 0.035-0.262 0.094-0.383s0.142-0.232 0.248-0.333c0.343-0.282 0.851-0.373 1.288-0.212 0.142 0.050 0.272 0.121 0.39 0.212 0.106 0.101 0.189 0.212 0.248 0.333s0.095 0.252 0.095 0.383c0 0.262-0.13 0.525-0.343 0.716h0z"/>
        </symbol>
        <symbol id="icon-exit_cabinet" viewBox="0 0 32 32">
            <path d="M18.401 23.658h-5.76v-15.36h5.76v4.032h2.432v-5.28c0-0.64-0.512-1.152-1.152-1.152h-7.040v-2.4c0-0.608-0.608-0.992-1.152-0.768l-9.76 4.384c-0.544 0.256-0.928 0.8-0.928 1.408v14.944c0 0.608 0.352 1.152 0.928 1.408l9.76 4.384c0.544 0.256 1.152-0.16 1.152-0.768v-2.4h7.040c0.64 0 1.152-0.512 1.152-1.152v-5.312h-2.432v4.032z"/>
            <path d="M30.914 15.369l-5.824-4.736c-0.512-0.416-1.312-0.064-1.312 0.64v2.72h-8.832c-0.384 0-0.672 0.32-0.672 0.672v2.688c0 0.384 0.32 0.672 0.672 0.672h8.832v2.72c0 0.672 0.8 1.056 1.312 0.64l5.824-4.768c0.384-0.32 0.384-0.928 0-1.248v-0z"/>
        </symbol>
        <symbol id="icon-user_cabinet" viewBox="0 0 32 32">
            <path d="M16.002 20.144c-5.086 0-15.238 2.533-15.238 7.619v3.809h30.476v-3.809c0-5.086-10.152-7.619-15.238-7.619zM16.002 16.334c2.021 0 3.959-0.803 5.387-2.232s2.232-3.367 2.232-5.387c0-2.021-0.803-3.959-2.232-5.388s-3.367-2.232-5.387-2.232c-2.021 0-3.959 0.803-5.387 2.232s-2.232 3.367-2.232 5.388c0 2.021 0.803 3.959 2.232 5.387s3.367 2.232 5.387 2.232z"/>
        </symbol>
        <symbol id="icon-score_cabinet" viewBox="0 0 32 32">
            <path d="M9.077 10.958c-4.599 5.039-7.309 10.709-9.077 16.694 0.534 1.98 1.984 3.46 4.536 4.348h22.924c2.552-0.888 4.005-2.368 4.54-4.348-1.772-5.985-4.488-11.655-9.081-16.694h-13.843zM20.859 6.457h-10.296l-3.836-6.115 2.543-0.28 1.337 2.039 0.845-0.129-0.078-1.91 3.428-0.062 0.057 1.942h1.705l0.061-1.942 3.427 0.062-0.076 1.91 0.848 0.129 1.329-2.039 2.544 0.28-3.839 6.115zM7.715 10.041c-0.944 0-1.717-0.596-1.717-1.334 0-0.733 0.773-1.333 1.717-1.333h16.721c0.939 0 1.712 0.601 1.712 1.333 0 0.738-0.773 1.334-1.712 1.334h-16.721zM17.902 27.344v0.805h-3.148v-0.838c-1.559-0.304-2.337-1-2.337-2.084v-2.789h3.144v2.813c0 0.276 0.215 0.413 0.63 0.413 0.408 0 0.613-0.137 0.613-0.413v-1.451c0-0.309-0.151-0.616-0.446-0.925-0.292-0.317-1.231-1.076-2.808-2.284-0.76-0.671-1.133-1.28-1.133-1.843v-1.375c0-1.25 0.778-2.005 2.337-2.259v-0.838h3.148v0.838c1.364 0.262 2.048 0.946 2.048 2.042v2.11h-3.145v-2.247c0-0.246-0.167-0.367-0.506-0.367-0.383 0-0.575 0.237-0.575 0.713l0.061 0.792c0 0.455 0.389 0.985 1.162 1.605 1.561 1.205 2.5 2.006 2.827 2.389 0.324 0.387 0.493 0.816 0.493 1.3v1.559c0 1.308-0.791 2.083-2.364 2.334h-0z"/>
        </symbol>
        <symbol id="icon-star_cabinet" viewBox="0 0 32 32">
            <path d="M17.296 2.198c-0.278-0.448-0.767-0.72-1.294-0.72s-1.016 0.272-1.294 0.72l-4.305 6.932-8.415 1.691c-0.545 0.109-0.987 0.507-1.154 1.038s-0.031 1.109 0.354 1.511l5.693 5.938-0.869 7.91c-0.059 0.535 0.169 1.062 0.6 1.385s1 0.395 1.497 0.19l7.894-3.264 7.894 3.264c0.498 0.206 1.067 0.134 1.497-0.19s0.659-0.85 0.6-1.385l-0.869-7.91 5.693-5.938c0.385-0.401 0.52-0.98 0.354-1.511s-0.609-0.928-1.154-1.038l-8.415-1.691-4.305-6.932z"/>
        </symbol>
        <symbol id="icon-promo_cabinet" viewBox="0 0 52 32">
            <path d="M45.411 31.907l-23.354-0.003c-0.779-0.011-1.51-0.174-2.17-0.483-0.685-0.32-1.299-0.795-1.819-1.418l-0.59-0.705-0.59 0.704c-0.514 0.616-1.13 1.091-1.824 1.415-0.689 0.322-1.45 0.487-2.259 0.487h-7.829c-1.238-0-2.365-0.505-3.176-1.316-0.814-0.814-1.319-1.94-1.32-3.178l0.004-21.941c0.024-1.203 0.523-2.294 1.315-3.086 0.813-0.814 1.939-1.32 3.178-1.32l7.83 0.003c0.813-0.003 1.572 0.162 2.259 0.482 0.685 0.321 1.298 0.796 1.819 1.418l0.59 0.705 0.588-0.703c0.514-0.616 1.129-1.090 1.824-1.416 0.689-0.322 1.448-0.488 2.259-0.487l23.296 0.001c1.238 0 2.365 0.505 3.177 1.317s1.317 1.941 1.317 3.182l-0.001 21.879c-0.009 1.225-0.513 2.339-1.316 3.142-0.814 0.814-1.94 1.32-3.208 1.321zM13.153 25.364l0-17.755c0.002-0.671-0.542-1.217-1.214-1.219s-1.217 0.542-1.219 1.214l-0 17.755c-0.002 0.671 0.542 1.217 1.214 1.219s1.217-0.542 1.219-1.214zM8.457 25.36l0-17.755c-0.001-0.672-0.548-1.217-1.221-1.217s-1.217 0.548-1.217 1.221l-0 17.755c0.001 0.672 0.548 1.217 1.221 1.217s1.217-0.548 1.217-1.221zM18.692 23.872l0-2.737c0.002-0.671-0.542-1.217-1.214-1.219s-1.217 0.542-1.219 1.214l-0 2.737c-0.002 0.671 0.542 1.217 1.214 1.219s1.217-0.542 1.219-1.214zM18.692 11.84l0-2.737c0.002-0.671-0.542-1.217-1.214-1.219s-1.217 0.542-1.219 1.214l-0 2.737c-0.002 0.671 0.542 1.217 1.214 1.219s1.217-0.542 1.219-1.214zM18.692 17.856l0-2.737c0.002-0.671-0.542-1.217-1.214-1.219s-1.217 0.542-1.219 1.214l-0 2.737c-0.002 0.671 0.542 1.217 1.214 1.219s1.217-0.542 1.219-1.214zM29.068 24.501l10.072-14.649c0.38-0.555 0.24-1.316-0.315-1.697s-1.316-0.24-1.697 0.315l-10.072 14.649c-0.381 0.555-0.24 1.316 0.315 1.697s1.316 0.24 1.697-0.315zM38.136 25.029c1.239 0 2.363-0.503 3.174-1.314s1.313-1.935 1.313-3.176c-0-1.239-0.503-2.363-1.314-3.173s-1.935-1.313-3.176-1.313c-1.238 0-2.362 0.503-3.173 1.314-0.79 0.79-1.287 1.877-1.311 3.082l-0.004 0.094c0 1.239 0.503 2.363 1.314 3.174s1.936 1.314 3.177 1.314zM36.683 21.989c-0.371-0.371-0.602-0.885-0.602-1.48 0.016-0.569 0.244-1.060 0.604-1.42 0.371-0.371 0.885-0.601 1.451-0.601 0.563 0 1.076 0.231 1.448 0.602s0.602 0.885 0.602 1.451c0 0.564-0.231 1.076-0.602 1.448s-0.885 0.601-1.451 0.602c-0.564 0-1.077-0.232-1.449-0.603zM27.992 14.48c-0.537-0.017-1.024-0.244-1.381-0.6-0.355-0.354-0.58-0.838-0.6-1.373l-0-0.145c0.018-0.537 0.245-1.025 0.601-1.381 0.354-0.355 0.838-0.58 1.373-0.6l0.145-0c0.537 0.018 1.024 0.244 1.381 0.601 0.355 0.354 0.58 0.838 0.6 1.373v0.146c-0.017 0.537-0.244 1.024-0.6 1.381-0.354 0.355-0.838 0.58-1.373 0.6l-0.146 0zM28.014 16.919c1.288 0.001 2.412-0.501 3.223-1.313 0.8-0.8 1.3-1.906 1.313-3.152 0.001-1.263-0.502-2.387-1.313-3.198-0.8-0.8-1.906-1.3-3.152-1.313-1.263-0-2.387 0.502-3.198 1.313-0.8 0.8-1.3 1.906-1.313 3.152-0 1.263 0.502 2.387 1.313 3.198 0.8 0.8 1.906 1.3 3.128 1.313z"/>
        </symbol>
        <symbol id="icon-referal_cabinet" viewBox="0 0 32 32">
            <path d="M25.152 19.050c-0.081 0-0.152 0.021-0.236 0.024l-4.614-7.89c1.15-1.14 1.8-2.691 1.804-4.311s-0.635-3.174-1.779-4.321c-1.144-1.147-2.697-1.792-4.316-1.792s-3.173 0.645-4.316 1.792c-1.144 1.147-1.784 2.702-1.779 4.321s0.654 3.171 1.804 4.311l-4.6 7.892c-0.087-0.005-0.166-0.026-0.253-0.026-1.529-0.005-3.004 0.564-4.133 1.595s-1.829 2.45-1.961 3.973c-0.132 1.523 0.313 3.041 1.247 4.251s2.289 2.026 3.796 2.284c1.507 0.258 3.056-0.059 4.34-0.89s2.209-2.113 2.591-3.594h6.525c0.384 1.476 1.309 2.754 2.591 3.582s2.827 1.142 4.331 0.884c1.503-0.259 2.854-1.072 3.787-2.28s1.377-2.721 1.246-4.241c-0.131-1.52-0.828-2.935-1.952-3.965s-2.595-1.601-4.121-1.599v-0zM19.272 23.621h-6.525c-0.387-1.498-1.33-2.793-2.638-3.621l4.256-7.299c1.071 0.338 2.221 0.338 3.293 0l4.267 7.293c-1.315 0.826-2.264 2.123-2.653 3.627v0z"/>
        </symbol>
        <symbol id="icon-x" viewBox="0 0 32 32">
            <path d="M16 0c-8.836 0-16 7.164-16 16s7.164 16 16 16 16-7.164 16-16-7.164-16-16-16zM23.914 21.086l-2.828 2.828-5.086-5.086-5.086 5.086-2.828-2.828 5.086-5.086-5.086-5.086 2.828-2.828 5.086 5.086 5.086-5.086 2.828 2.828-5.086 5.086 5.086 5.086z"/>
        </symbol>

        <symbol id="icon-warning-2" viewBox="0 0 35 32">
            <path d="M15.855 11.2h3.2v-3.2h-3.2zM17.455 28.8c-7.056 0-12.8-5.744-12.8-12.8s5.744-12.8 12.8-12.8c7.056 0 12.8 5.744 12.8 12.8s-5.744 12.8-12.8 12.8zM17.455 0c-2.101 0-4.182 0.414-6.123 1.218s-3.705 1.983-5.191 3.468c-3.001 3.001-4.686 7.070-4.686 11.314s1.686 8.313 4.686 11.314c1.486 1.486 3.25 2.664 5.191 3.468s4.022 1.218 6.123 1.218c4.243 0 8.313-1.686 11.314-4.686s4.686-7.070 4.686-11.314c0-2.101-0.414-4.182-1.218-6.123s-1.983-3.705-3.468-5.191c-1.486-1.486-3.25-2.664-5.191-3.468s-4.022-1.218-6.123-1.218zM15.855 24h3.2v-9.6h-3.2v9.6z"/>
        </symbol>
        <symbol id="icon-star" viewBox="0 0 32 32">
            <path d="M16 0l3.592 11.056h11.625l-9.405 6.833 3.592 11.056-9.405-6.833-9.405 6.833 3.592-11.056-9.405-6.833h11.625l3.592-11.056z"/>
        </symbol>
        <symbol id="icon-payment" viewBox="0 0 43 32">
            <path d="M35.048 19.899v-15.597c0-2.145-1.714-3.899-3.809-3.899h-26.667c-2.095 0-3.81 1.755-3.81 3.899v15.597c0 2.144 1.714 3.899 3.81 3.899h26.667c2.095 0 3.809-1.755 3.809-3.899zM31.238 19.899h-26.667v-15.597h26.667v15.597zM17.905 6.252c-3.162 0-5.714 2.612-5.714 5.849s2.552 5.849 5.714 5.849 5.714-2.612 5.714-5.849c0-3.236-2.552-5.849-5.714-5.849zM42.667 6.252v21.445c0 2.145-1.714 3.899-3.81 3.899h-32.381v-3.899h32.381v-21.445h3.81z"/>
        </symbol>
        <symbol id="icon-checkmark" viewBox="0 0 32 32">
            <path d="M27 4l-15 15-7-7-5 5 12 12 20-20z"/>
        </symbol>
        <symbol id="icon-pencil" viewBox="0 0 32 32">
            <path d="M12 20l4-2 14-14-2-2-14 14-2 4zM9.041 27.097c-0.989-2.085-2.052-3.149-4.137-4.137l3.097-8.525 4-2.435 12-12h-6l-12 12-6 20 20-6 12-12v-6l-12 12-2.435 4z"/>
        </symbol>
        <symbol id="icon-arrow-right" viewBox="0 0 32 32">
            <path d="M19.414 27.414l10-10c0.781-0.781 0.781-2.047 0-2.828l-10-10c-0.781-0.781-2.047-0.781-2.828 0s-0.781 2.047 0 2.828l6.586 6.586h-19.172c-1.105 0-2 0.895-2 2s0.895 2 2 2h19.172l-6.586 6.586c-0.39 0.39-0.586 0.902-0.586 1.414s0.195 1.024 0.586 1.414c0.781 0.781 2.047 0.781 2.828 0z"/>
        </symbol>
        <symbol id="icon-mail" viewBox="0 0 43 32">
            <path d="M37.333 0h-32c-2.2 0-3.981 1.8-3.981 4l-0.019 24c0 2.2 1.8 4 4 4h32c2.2 0 4-1.8 4-4v-24c0-2.2-1.8-4-4-4zM36.533 8.501l-14.139 8.837c-0.302 0.188-0.668 0.3-1.060 0.3s-0.758-0.112-1.069-0.305l0.009 0.005-14.141-8.84c-0.503-0.301-0.835-0.843-0.835-1.463 0-0.938 0.761-1.699 1.699-1.699 0.349 0 0.673 0.105 0.943 0.285l-0.006-0.004 13.4 8.381 13.4-8.381c0.264-0.176 0.588-0.282 0.937-0.282 0.938 0 1.699 0.761 1.699 1.699 0 0.62-0.332 1.162-0.828 1.459l-0.008 0.004z"/>
        </symbol>
        <symbol id="icon-location" viewBox="0 0 23 32">
            <path d="M11.429 2c-2.916 0.003-5.712 1.163-7.774 3.226s-3.222 4.858-3.226 7.774c-0.004 2.383 0.775 4.702 2.216 6.6 0 0 0.3 0.395 0.349 0.452l8.435 9.948 8.439-9.953c0.044-0.053 0.345-0.447 0.345-0.447l0.001-0.003c1.44-1.897 2.218-4.215 2.215-6.597-0.003-2.916-1.163-5.712-3.226-7.774s-4.858-3.222-7.774-3.226zM11.429 17c-0.791 0-1.564-0.235-2.222-0.674s-1.171-1.064-1.473-1.795c-0.303-0.731-0.382-1.535-0.228-2.311s0.535-1.489 1.095-2.048c0.559-0.559 1.272-0.94 2.048-1.095s1.58-0.075 2.311 0.228c0.731 0.303 1.356 0.815 1.795 1.473s0.674 1.431 0.674 2.222c-0.001 1.060-0.423 2.077-1.173 2.827s-1.767 1.172-2.827 1.173z"/>
        </symbol>
        <symbol id="icon-phone" viewBox="0 0 32 32">
            <path d="M2.126 1.188c1.278-1.281 5.141-1.495 5.17-0.817 0.029 0.677 3.479 8.191 3.509 8.869s-2.274 2.987-2.948 3.663c-0.668 0.669 4.508 6.533 4.606 6.644 0.11 0.099 5.96 5.287 6.628 4.617 0.674-0.676 2.979-2.985 3.653-2.955 0.676 0.029 8.173 3.487 8.849 3.518 0.676 0.029 0.463 3.9-0.815 5.182-1.093 1.095-6.752 5.071-16.592-2.029-1.079-0.622-2.788-2.049-5.38-4.646-0.001-0.001-0.003-0.003-0.005-0.004-0.002-0.003-0.004-0.004-0.006-0.006s-0.004-0.004-0.006-0.006c-0.001-0.002-0.003-0.004-0.004-0.005-2.59-2.598-4.014-4.312-4.635-5.393-7.083-9.864-3.116-15.537-2.024-16.632z"/>
        </symbol>
        <symbol id="icon-close" viewBox="0 0 32 32">
            <path d="M4.795 26.232l21.436-21.436 1.739 1.739-21.436 21.437-1.739-1.739z"/>
            <path d="M6.537 4.795l21.436 21.436-1.739 1.739-21.436-21.436 1.739-1.739z"/>
        </symbol>
        <symbol id="icon-swipe-next" viewBox="0 0 16 32">
            <path d="M0 16l15-15.588v31.177l-15-15.588z"/>
        </symbol>
        <symbol id="icon-up" viewBox="0 0 32 32">
            <path d="M16 0c-8.836 0-16 7.164-16 16s7.163 16 16 16 16-7.164 16-16c0-8.836-7.164-16-16-16zM23.22 20.244c-0.583 0.583-1.529 0.583-2.113 0l-5.148-5.149-5.176 5.175c-0.583 0.583-1.529 0.583-2.113 0-0.291-0.292-0.437-0.674-0.437-1.057s0.146-0.764 0.438-1.056l6.004-6.005c0.057-0.089 0.123-0.175 0.201-0.253 0.298-0.298 0.691-0.442 1.082-0.435 0.391-0.007 0.784 0.137 1.082 0.435 0.078 0.078 0.144 0.163 0.201 0.252l5.978 5.978c0.583 0.583 0.584 1.529 0 2.113z"/>
        </symbol>
        <symbol id="icon-servers_cabinet" viewBox="0 0 41 32">
            <path d="M22.475 21.205h1.905c0.505 0 0.99 0.274 1.347 0.762s0.558 1.15 0.558 1.84h13.333v5.205h-13.334c0 0.69-0.2 1.352-0.558 1.84s-0.842 0.762-1.347 0.762h-7.619c-0.505 0-0.99-0.274-1.347-0.762s-0.558-1.15-0.558-1.84h-13.333v-5.205h13.333c0-0.69 0.201-1.352 0.558-1.84s0.842-0.762 1.347-0.762h1.905v-5.205h-13.333c-0.505 0-0.99-0.274-1.347-0.762s-0.558-1.15-0.558-1.84v-10.409c0-0.69 0.201-1.352 0.558-1.84s0.842-0.762 1.347-0.762h30.476c0.505 0 0.99 0.274 1.347 0.762s0.558 1.15 0.558 1.84v10.409c0 0.69-0.2 1.352-0.558 1.84s-0.842 0.762-1.347 0.762h-13.333v5.205zM14.856 10.795h1.905v-5.205h-1.905v5.205zM7.237 5.591v5.205h3.809v-5.205h-3.809z"/>
        </symbol>
        <symbol id="icon-sessions_cabinet" viewBox="0 0 37 32">
            <path d="M1.969 0.246c-0.522 0-1.023 0.207-1.392 0.577s-0.577 0.87-0.577 1.392v27.569c0 0.522 0.207 1.023 0.577 1.392s0.87 0.577 1.392 0.577h11.815c0.522 0 1.023-0.207 1.392-0.577s0.577-0.87 0.577-1.392v-27.569c0-0.522-0.207-1.023-0.577-1.392s-0.87-0.577-1.392-0.577h-11.815zM2.954 27.815c0.261 0 0.512 0.104 0.696 0.288s0.288 0.435 0.288 0.696c0 0.261-0.104 0.512-0.288 0.696s-0.435 0.288-0.696 0.288c-0.261 0-0.512-0.104-0.696-0.288s-0.288-0.435-0.288-0.696c0-0.261 0.104-0.512 0.288-0.696s0.435-0.288 0.696-0.288zM6.892 27.815c0.261 0 0.512 0.104 0.696 0.288s0.288 0.435 0.288 0.696c0 0.261-0.104 0.512-0.288 0.696s-0.435 0.288-0.696 0.288c-0.261 0-0.512-0.104-0.696-0.288s-0.288-0.435-0.288-0.696c0-0.261 0.104-0.512 0.288-0.696s0.435-0.288 0.696-0.288zM1.969 3.199c0-0.261 0.104-0.512 0.288-0.696s0.435-0.288 0.696-0.288h9.846c0.261 0 0.512 0.104 0.696 0.288s0.288 0.435 0.288 0.696c0 0.261-0.104 0.512-0.288 0.696s-0.435 0.288-0.696 0.288h-9.846c-0.261 0-0.512-0.104-0.696-0.288s-0.288-0.435-0.288-0.696zM2.954 6.153h9.846c0.261 0 0.512 0.104 0.696 0.288s0.288 0.435 0.288 0.696c0 0.261-0.104 0.512-0.288 0.696s-0.435 0.288-0.696 0.288h-9.846c-0.261 0-0.512-0.104-0.696-0.288s-0.288-0.435-0.288-0.696c0-0.261 0.104-0.512 0.288-0.696s0.435-0.288 0.696-0.288z"/>
            <path d="M22.786 0.246c-0.522 0-1.023 0.207-1.392 0.577s-0.577 0.87-0.577 1.392v27.569c0 0.522 0.207 1.023 0.577 1.392s0.87 0.577 1.392 0.577h11.815c0.522 0 1.023-0.207 1.392-0.577s0.577-0.87 0.577-1.392v-27.569c0-0.522-0.207-1.023-0.577-1.392s-0.87-0.577-1.392-0.577h-11.815zM23.771 27.815c0.261 0 0.512 0.104 0.696 0.288s0.288 0.435 0.288 0.696c0 0.261-0.104 0.512-0.288 0.696s-0.435 0.288-0.696 0.288c-0.261 0-0.512-0.104-0.696-0.288s-0.288-0.435-0.288-0.696c0-0.261 0.104-0.512 0.288-0.696s0.435-0.288 0.696-0.288zM27.709 27.815c0.261 0 0.512 0.104 0.696 0.288s0.288 0.435 0.288 0.696c0 0.261-0.104 0.512-0.288 0.696s-0.435 0.288-0.696 0.288c-0.261 0-0.512-0.104-0.696-0.288s-0.288-0.435-0.288-0.696c0-0.261 0.104-0.512 0.288-0.696s0.435-0.288 0.696-0.288zM22.786 3.199c0-0.261 0.104-0.512 0.288-0.696s0.435-0.288 0.696-0.288h9.846c0.261 0 0.512 0.104 0.696 0.288s0.288 0.435 0.288 0.696c0 0.261-0.104 0.512-0.288 0.696s-0.435 0.288-0.696 0.288h-9.846c-0.261 0-0.512-0.104-0.696-0.288s-0.288-0.435-0.288-0.696zM23.771 6.153h9.846c0.261 0 0.512 0.104 0.696 0.288s0.288 0.435 0.288 0.696c0 0.261-0.104 0.512-0.288 0.696s-0.435 0.288-0.696 0.288h-9.846c-0.261 0-0.512-0.104-0.696-0.288s-0.288-0.435-0.288-0.696c0-0.261 0.104-0.512 0.288-0.696s0.435-0.288 0.696-0.288z"/>
        </symbol>
        <symbol id="icon-statistic_cabinet" viewBox="0 0 28 32">
            <path d="M13.983 1.775c0.045-0.014 0.091-0.026 0.137-0.034 0.155-0.015 0.311 0.004 0.459 0.054s0.282 0.132 0.395 0.239c0.113 0.107 0.203 0.236 0.262 0.38s0.087 0.299 0.081 0.455v1.094h9.846c0.871 0 1.705 0.346 2.321 0.961s0.961 1.45 0.961 2.321v14.222c0 1.812-1.47 3.282-3.282 3.282h-9.846v0.41l5.949 2.975c0.263 0.127 0.465 0.353 0.561 0.629s0.079 0.578-0.048 0.841c-0.127 0.263-0.353 0.465-0.629 0.561s-0.578 0.079-0.841-0.048l-4.992-2.495v0.41c0 0.29-0.115 0.569-0.32 0.774s-0.483 0.32-0.774 0.32c-0.29 0-0.568-0.115-0.774-0.32s-0.32-0.484-0.32-0.774v-0.41l-4.992 2.495c-0.263 0.127-0.565 0.144-0.841 0.048s-0.502-0.298-0.629-0.561c-0.127-0.263-0.144-0.565-0.048-0.841s0.298-0.502 0.561-0.629l5.949-2.975v-0.41h-9.846c-1.812 0-3.282-1.47-3.282-3.282v-14.222c0-0.87 0.346-1.705 0.961-2.321s1.45-0.961 2.321-0.961h9.846v-1.094c-0.006-0.253 0.076-0.5 0.231-0.7s0.376-0.339 0.623-0.394zM22.837 8.339c-0.245 0.026-0.474 0.135-0.65 0.307l-3.59 3.591-2.495-2.498c-0.12-0.123-0.266-0.216-0.428-0.271s-0.335-0.072-0.504-0.049c-0.17 0.023-0.331 0.086-0.472 0.183s-0.257 0.226-0.339 0.377l-3.248 5.676-1.334-3.351c-0.065-0.173-0.172-0.327-0.313-0.447s-0.309-0.203-0.49-0.241c-0.181-0.038-0.368-0.029-0.545 0.026s-0.336 0.153-0.465 0.286l-3.282 3.282c-0.103 0.103-0.186 0.226-0.242 0.361s-0.085 0.28-0.085 0.426c-0 0.146 0.029 0.291 0.085 0.426s0.138 0.258 0.241 0.361c0.103 0.103 0.226 0.186 0.361 0.242s0.28 0.085 0.426 0.085c0.146 0 0.291-0.029 0.426-0.085s0.258-0.138 0.361-0.241l2.085-2.085 1.573 3.897c0.074 0.195 0.203 0.366 0.371 0.49s0.368 0.199 0.577 0.213c0.209 0.014 0.417-0.031 0.6-0.132s0.334-0.251 0.435-0.434l3.658-6.393 2.256 2.257c0.102 0.106 0.224 0.189 0.359 0.247s0.28 0.087 0.427 0.087c0.147 0 0.292-0.030 0.427-0.087s0.257-0.141 0.359-0.247l4.376-4.376c0.173-0.16 0.289-0.371 0.332-0.603s0.010-0.471-0.094-0.682c-0.104-0.211-0.273-0.384-0.483-0.491s-0.448-0.144-0.68-0.105z"/>
        </symbol>
        <symbol id="icon-analise" viewBox="0 0 32 32">
            <path d="M25.567 8.315c-1.217 0-2.204 0.987-2.204 2.204 0 0.18 0.028 0.353 0.069 0.521l-3.176 2.771c-0.255-0.103-0.533-0.163-0.825-0.163-0.422 0-0.813 0.125-1.148 0.331l-5.205-3.274c0.005-0.062 0.019-0.122 0.019-0.186 0-1.217-0.987-2.204-2.204-2.204s-2.204 0.987-2.204 2.204c0 0.317 0.070 0.617 0.19 0.89l-1.93 2.307c-0.166-0.040-0.337-0.067-0.515-0.067-1.217 0-2.204 0.987-2.204 2.204s0.987 2.204 2.204 2.204c1.217 0 2.204-0.987 2.204-2.204 0-0.297-0.061-0.58-0.167-0.839l1.959-2.341c0.15 0.032 0.304 0.051 0.463 0.051 0.415 0 0.798-0.121 1.129-0.32l5.222 3.285c-0.004 0.055-0.017 0.108-0.017 0.165 0 1.217 0.987 2.204 2.204 2.204s2.204-0.987 2.204-2.204c0-0.183-0.029-0.358-0.071-0.529l3.171-2.766c0.257 0.105 0.538 0.165 0.833 0.165 1.217 0 2.204-0.987 2.204-2.204s-0.988-2.205-2.205-2.205z"/>
            <path d="M15 24.917v3.583h-6.75v2h15.5v-2h-6.75v-3.583h14c0.55 0 1-0.45 1-1v-21.417c0-0.55-0.45-1-1-1h-30c-0.55 0-1 0.45-1 1v21.417c0 0.55 0.45 1 1 1h14zM2 3.5h28v19.417h-28v-19.417z"/>
        </symbol>
        <symbol id="icon-display" viewBox="0 0 32 32">
            <path d="M0 2v20h32v-20h-32zM30 20h-28v-16h28v16zM21 24h-10l-1 4-2 2h16l-2-2z"/>
        </symbol>
        <symbol id="icon-discord" viewBox="0 0 43 32">
            <path d="M36.119 2.653c-2.72-1.227-5.636-2.133-8.684-2.649-0.027-0.005-0.055-0.002-0.081 0.010s-0.046 0.030-0.060 0.054c-0.373 0.656-0.789 1.511-1.081 2.187-3.234-0.483-6.521-0.483-9.755 0-0.325-0.749-0.691-1.479-1.097-2.187-0.014-0.024-0.035-0.044-0.060-0.056s-0.053-0.016-0.081-0.012c-3.047 0.516-5.963 1.422-8.684 2.651-0.023 0.010-0.043 0.027-0.057 0.048-5.532 8.133-7.049 16.066-6.304 23.899 0.002 0.019 0.008 0.038 0.018 0.055s0.022 0.031 0.038 0.043c3.229 2.351 6.831 4.142 10.654 5.298 0.027 0.008 0.055 0.008 0.082-0s0.050-0.024 0.068-0.046c0.823-1.1 1.552-2.268 2.18-3.49 0.009-0.017 0.014-0.035 0.015-0.054s-0.002-0.038-0.009-0.055c-0.007-0.018-0.018-0.033-0.031-0.047s-0.030-0.023-0.048-0.029c-1.148-0.433-2.261-0.954-3.328-1.561-0.019-0.011-0.035-0.026-0.047-0.045s-0.019-0.040-0.020-0.062c-0.001-0.022 0.003-0.044 0.012-0.064s0.023-0.038 0.041-0.051c0.224-0.165 0.448-0.338 0.661-0.51 0.019-0.015 0.042-0.025 0.067-0.029s0.049 0.001 0.072 0.011c6.981 3.136 14.542 3.136 21.442 0 0.023-0.011 0.048-0.015 0.073-0.012s0.048 0.013 0.068 0.028c0.213 0.174 0.435 0.347 0.661 0.512 0.018 0.013 0.032 0.030 0.041 0.050s0.014 0.042 0.013 0.064c-0.001 0.022-0.008 0.043-0.019 0.062s-0.027 0.035-0.046 0.046c-1.063 0.612-2.169 1.129-3.33 1.559-0.018 0.006-0.034 0.017-0.048 0.030s-0.024 0.029-0.031 0.047c-0.007 0.018-0.010 0.037-0.009 0.055s0.006 0.037 0.015 0.054c0.64 1.221 1.372 2.384 2.178 3.488 0.017 0.023 0.040 0.039 0.067 0.048s0.056 0.009 0.083 0.001c3.83-1.153 7.437-2.944 10.67-5.3 0.016-0.011 0.029-0.025 0.039-0.042s0.016-0.035 0.018-0.054c0.889-9.056-1.49-16.924-6.309-23.897-0.012-0.023-0.031-0.040-0.055-0.050zM14.257 21.828c-2.101 0-3.835-1.901-3.835-4.231 0-2.332 1.7-4.231 3.835-4.231 2.151 0 3.868 1.915 3.835 4.231 0 2.333-1.7 4.231-3.835 4.231zM28.435 21.828c-2.103 0-3.835-1.901-3.835-4.231 0-2.332 1.698-4.231 3.835-4.231 2.151 0 3.869 1.915 3.835 4.231 0 2.333-1.682 4.231-3.835 4.231z"/>
        </symbol>
        <symbol id="icon-google" viewBox="0 0 30 32">
            <path d="M29.267 13.187c0.187 1.004 0.29 2.054 0.29 3.15 0 8.57-5.736 14.664-14.399 14.664-1.97 0.001-3.921-0.387-5.741-1.141s-3.474-1.858-4.867-3.252-2.498-3.047-3.252-4.867c-0.754-1.82-1.141-3.771-1.141-5.741-0.001-1.97 0.387-3.921 1.141-5.741s1.859-3.474 3.252-4.867 3.047-2.498 4.867-3.252c1.82-0.754 3.771-1.141 5.741-1.141 4.050 0 7.435 1.49 10.031 3.91l-4.229 4.229v-0.011c-1.574-1.499-3.572-2.269-5.803-2.269-4.949 0-8.972 4.181-8.972 9.132 0 4.949 4.023 9.14 8.972 9.14 4.491 0 7.547-2.568 8.175-6.094h-8.175v-5.85h14.109z"/>
        </symbol>
        <symbol id="icon-facebook" viewBox="0 0 19 32">
            <path d="M18.773 2.133c0-0.226-0.090-0.443-0.25-0.603s-0.377-0.25-0.603-0.25h-4.267c-2.149-0.107-4.252 0.641-5.851 2.080s-2.563 3.452-2.682 5.6v4.608h-4.267c-0.226 0-0.443 0.090-0.603 0.25s-0.25 0.377-0.25 0.603v4.437c0 0.226 0.090 0.443 0.25 0.603s0.377 0.25 0.603 0.25h4.267v11.435c0 0.226 0.090 0.443 0.25 0.603s0.377 0.25 0.603 0.25h5.12c0.226 0 0.443-0.090 0.603-0.25s0.25-0.377 0.25-0.603v-11.435h4.472c0.19 0.003 0.375-0.058 0.526-0.172s0.26-0.276 0.31-0.459l1.229-4.437c0.034-0.126 0.039-0.258 0.013-0.386s-0.079-0.249-0.158-0.353c-0.079-0.104-0.181-0.188-0.298-0.247s-0.245-0.089-0.376-0.090h-5.717v-4.608c0.042-0.422 0.241-0.814 0.556-1.098s0.726-0.44 1.15-0.438h4.267c0.226 0 0.443-0.090 0.603-0.25s0.25-0.377 0.25-0.603v-4.437z"/>
        </symbol>
        <symbol id="icon-Arrow-3" viewBox="0 0 82 32">
            <path d="M81.414 17.414c0.781-0.781 0.781-2.047 0-2.828l-12.728-12.728c-0.781-0.781-2.047-0.781-2.828 0s-0.781 2.047 0 2.828l11.314 11.314-11.314 11.314c-0.781 0.781-0.781 2.047 0 2.828s2.047 0.781 2.828 0l12.728-12.728zM0 18h80v-4h-80v4z"/>
        </symbol>
        <svg id="icon-pagination-arrow-left" viewBox="0 0 14 14">
            <path d="M5.64645 6.64645C5.45118 6.84171 5.45118 7.15829 5.64645 7.35355L8.82843 10.5355C9.02369 10.7308 9.34027 10.7308 9.53553 10.5355C9.7308 10.3403 9.7308 10.0237 9.53553 9.82843L6.70711 7L9.53553 4.17157C9.7308 3.97631 9.7308 3.65973 9.53553 3.46447C9.34027 3.2692 9.02369 3.2692 8.82843 3.46447L5.64645 6.64645ZM7 6.5L6 6.5L6 7.5L7 7.5L7 6.5Z"/>
        </svg>
        <svg id="icon-pagination-arrow-right" viewBox="0 0 14 14">
            <path d="M8.35355 7.35355C8.54882 7.15829 8.54882 6.84171 8.35355 6.64645L5.17157 3.46447C4.97631 3.2692 4.65973 3.2692 4.46447 3.46447C4.2692 3.65973 4.2692 3.97631 4.46447 4.17157L7.29289 7L4.46447 9.82843C4.2692 10.0237 4.2692 10.3403 4.46447 10.5355C4.65973 10.7308 4.97631 10.7308 5.17157 10.5355L8.35355 7.35355ZM7 7.5L8 7.5L8 6.5L7 6.5L7 7.5Z"/>
        </svg>
        <symbol id="icon-success" viewBox="0 0 36 32">
            <path d="M34.461 0.919c-0.331-0.191-0.702-0.322-1.091-0.385s-0.787-0.059-1.174 0.014c-0.387 0.073-0.753 0.213-1.078 0.411s-0.604 0.452-0.819 0.746l-16.859 23.032-8.222-6.738c-0.29-0.238-0.63-0.422-1.001-0.544s-0.765-0.177-1.159-0.163c-0.797 0.028-1.55 0.335-2.091 0.854s-0.828 1.208-0.797 1.915c0.031 0.707 0.378 1.373 0.964 1.853l10.795 8.846c0 0 0.31 0.236 0.453 0.319 0.331 0.191 0.702 0.322 1.091 0.386s0.788 0.059 1.174-0.014c0.387-0.073 0.753-0.213 1.079-0.411s0.604-0.452 0.819-0.746l18.802-25.687c0.215-0.294 0.363-0.622 0.435-0.966s0.066-0.698-0.016-1.040c-0.082-0.342-0.24-0.667-0.464-0.956s-0.51-0.535-0.841-0.726z"/>
        </symbol>
        <symbol id="icon-warning" viewBox="0 0 9 32">
            <path d="M5.393 1.343c0.972 0 1.753 0.784 1.731 1.737l-0.397 17.081c-0.021 0.923-0.79 1.66-1.731 1.66h-1.262c-0.941 0-1.71-0.738-1.731-1.661l-0.385-17.081c-0.021-0.953 0.76-1.736 1.731-1.736h2.045zM4.364 30.658c-0.876 0-1.626-0.302-2.252-0.906-0.616-0.604-0.924-1.341-0.924-2.209 0-0.85 0.308-1.577 0.924-2.181 0.625-0.604 1.376-0.906 2.252-0.906 0.856 0 1.597 0.302 2.223 0.906 0.635 0.604 0.953 1.331 0.953 2.181 0 0.576-0.149 1.1-0.447 1.572-0.289 0.472-0.674 0.85-1.155 1.133-0.471 0.274-0.996 0.411-1.573 0.411z"/>
        </symbol>
        <svg id="icon-arrow-down" width="10" height="5" viewBox="0 0 10 5">
            <path d="M5 5L0.669874 0.5L9.33013 0.499999L5 5Z"/>
        </svg>
        <symbol id="icon-tag" viewBox="0 0 21 32">
            <path d="M17.857 18.144l2.407-1.126v-3.89l-3.2 1.496-1.056-4.692 4.256-1.991v-3.89l-5.049 2.362-1.398-6.189-3.968 1.856 1.393 6.192-3.782 1.769-1.351-6.212-4.112 1.924 1.393 6.192-2.395 1.121v3.89l3.182-1.488 1.050 4.695-4.232 1.98v3.89l5.024-2.35 1.387 6.194 3.962-1.853-1.351-6.212 3.872-1.811 1.399 6.189 3.968-1.856-1.398-6.189zM12.041 11.789l1.056 4.692-3.848 1.8-1.020-4.709 3.812-1.783z"/>
        </symbol>
        <symbol id="icon-calendar" viewBox="0 0 32 32">
            <path d="M15.999 17.974c-0.424 0-0.78-0.144-1.068-0.431s-0.431-0.643-0.43-1.066c0-0.424 0.144-0.78 0.431-1.068s0.643-0.431 1.066-0.43c0.424 0 0.78 0.144 1.068 0.431s0.431 0.643 0.43 1.066c0 0.424-0.144 0.78-0.431 1.068s-0.643 0.431-1.066 0.43zM10.008 17.974c-0.424 0-0.78-0.144-1.068-0.431s-0.431-0.643-0.43-1.066c0-0.424 0.144-0.78 0.431-1.068s0.643-0.431 1.066-0.43c0.424 0 0.78 0.144 1.068 0.431s0.431 0.643 0.43 1.066c0 0.424-0.144 0.78-0.431 1.068s-0.643 0.431-1.066 0.43zM21.991 17.974c-0.424 0-0.78-0.144-1.068-0.431s-0.431-0.643-0.43-1.066c0-0.424 0.144-0.78 0.431-1.068s0.643-0.431 1.066-0.43c0.424 0 0.78 0.144 1.068 0.431s0.431 0.643 0.43 1.066c0 0.424-0.144 0.78-0.431 1.068s-0.643 0.431-1.066 0.43zM15.999 23.965c-0.424 0-0.78-0.144-1.068-0.431s-0.431-0.643-0.43-1.066c0-0.424 0.144-0.78 0.431-1.068s0.643-0.431 1.066-0.43c0.424 0 0.78 0.144 1.068 0.431s0.431 0.643 0.43 1.066c0 0.424-0.144 0.78-0.431 1.068s-0.643 0.431-1.066 0.43zM10.008 23.965c-0.424 0-0.78-0.144-1.068-0.431s-0.431-0.643-0.43-1.066c0-0.424 0.144-0.78 0.431-1.068s0.643-0.431 1.066-0.43c0.424 0 0.78 0.144 1.068 0.431s0.431 0.643 0.43 1.066c0 0.424-0.144 0.78-0.431 1.068s-0.643 0.431-1.066 0.43zM21.991 23.965c-0.424 0-0.78-0.144-1.068-0.431s-0.431-0.643-0.43-1.066c0-0.424 0.144-0.78 0.431-1.068s0.643-0.431 1.066-0.43c0.424 0 0.78 0.144 1.068 0.431s0.431 0.643 0.43 1.066c0 0.424-0.144 0.78-0.431 1.068s-0.643 0.431-1.066 0.43zM5.514 29.957c-0.824 0-1.529-0.294-2.116-0.881s-0.88-1.292-0.879-2.115v-20.97c0-0.824 0.294-1.529 0.881-2.116s1.292-0.88 2.115-0.879h1.498v-1.498c0-0.424 0.144-0.78 0.431-1.068s0.643-0.431 1.066-0.43c0.424 0 0.78 0.144 1.068 0.431s0.431 0.643 0.43 1.066v1.498h11.983v-1.498c0-0.424 0.144-0.78 0.431-1.068s0.643-0.431 1.066-0.43c0.424 0 0.78 0.144 1.068 0.431s0.431 0.643 0.43 1.066v1.498h1.498c0.824 0 1.529 0.294 2.116 0.881s0.88 1.292 0.879 2.115v20.97c0 0.824-0.294 1.529-0.881 2.116s-1.292 0.88-2.115 0.879h-20.97zM5.514 26.961h20.97v-14.978h-20.97v14.978z"/>
        </symbol>
        <symbol id="icon-mail1" viewBox="0 0 32 32">
            <path d="M26.666 0h-21.332c-2.934 0-5.334 2.4-5.334 5.333v21.333c0 2.934 2.4 5.334 5.334 5.334h21.332c2.936 0 5.334-2.4 5.334-5.334v-21.333c0-2.934-2.398-5.333-5.334-5.333zM8 8h16c0.286 0 0.563 0.061 0.817 0.177l-8.817 10.286-8.817-10.287c0.254-0.116 0.531-0.177 0.817-0.177zM6 22v-12c0-0.042 0.002-0.084 0.004-0.125l5.864 6.842-5.8 5.8c-0.045-0.167-0.069-0.34-0.069-0.517zM24 24h-16c-0.177 0-0.35-0.024-0.517-0.069l5.691-5.691 2.826 3.297 2.826-3.297 5.691 5.691c-0.167 0.045-0.34 0.069-0.517 0.069zM26 22c0 0.177-0.024 0.35-0.069 0.517l-5.8-5.8 5.864-6.842c0.003 0.041 0.004 0.083 0.004 0.125v12z"/>
        </symbol>
        <symbol id="icon-mail2" viewBox="0 0 32 32">
            <path d="M29 4h-26c-1.65 0-3 1.35-3 3v20c0 1.65 1.35 3 3 3h26c1.65 0 3-1.35 3-3v-20c0-1.65-1.35-3-3-3zM12.461 17.199l-8.461 6.59v-15.676l8.461 9.086zM5.512 8h20.976l-10.488 7.875-10.488-7.875zM12.79 17.553l3.21 3.447 3.21-3.447 6.58 8.447h-19.579l6.58-8.447zM19.539 17.199l8.461-9.086v15.676l-8.461-6.59z"/>
        </symbol>
        <symbol id="icon-mobile" viewBox="0 0 32 32">
            <path d="M23 0h-14c-1.65 0-3 1.35-3 3v26c0 1.65 1.35 3 3 3h14c1.65 0 3-1.35 3-3v-26c0-1.65-1.35-3-3-3zM12 1.5h8v1h-8v-1zM16 30c-1.105 0-2-0.895-2-2s0.895-2 2-2 2 0.895 2 2-0.895 2-2 2zM24 24h-16v-20h16v20z"/>
        </symbol>
        <symbol id="icon-s" viewBox="0 0 32 32">
            <path d="M15.983 7.883c-4.591 0-8.317 3.726-8.317 8.317s3.726 8.317 8.317 8.317c4.591 0 8.317-3.726 8.317-8.317s-3.726-8.317-8.317-8.317zM16.682 20.591v0.998h-1.397v-0.898c-0.765-0.067-1.497-0.333-1.996-0.665-0.166-0.133-0.266-0.333-0.166-0.532l0.033-0.033 0.299-0.599c0.1-0.166 0.266-0.266 0.399-0.266 0.067 0 0.133 0 0.166 0.067l0.067 0.033c0.566 0.366 1.164 0.532 1.763 0.532 0.433 0 1.397-0.1 1.397-1.031 0-0.566-0.433-0.732-1.497-1.131l-0.067-0.033c-1.497-0.566-2.595-1.098-2.595-2.695 0-1.331 0.799-2.229 2.162-2.428v-0.998l1.397-0v0.998c0.599 0.1 1.198 0.299 1.697 0.632 0.166 0.1 0.266 0.366 0.166 0.566l-0.266 0.566c-0.067 0.133-0.166 0.2-0.266 0.266s-0.266 0.033-0.366-0.067c-0.566-0.333-1.098-0.499-1.597-0.499-0.832 0-1.231 0.299-1.231 0.898 0 0.699 0.466 0.865 1.364 1.198l0.166 0.067c1.297 0.466 2.595 0.931 2.628 2.562-0.067 1.264-0.898 2.195-2.262 2.495v0z"/>
            <path d="M15.983 26.645c-5.755 0-10.446-4.691-10.446-10.446s4.691-10.446 10.446-10.446c5.755 0 10.446 4.691 10.446 10.446s-4.691 10.446-10.446 10.446zM15.983 7.051c-5.057 0-9.149 4.092-9.149 9.149s4.092 9.149 9.149 9.149c5.057 0 9.149-4.092 9.149-9.149s-4.092-9.149-9.149-9.149z"/>
            <path d="M7.5 2.46c0 2.861-2.928 2.928-2.928 2.928s2.928 0.067 2.928 2.928c0-2.861 2.928-2.928 2.928-2.928s-2.928-0.067-2.928-2.928z"/>
            <path d="M4.141 7.716c0 1.763-1.83 1.83-1.83 1.83s1.83 0.067 1.83 1.83c0-1.763 1.83-1.83 1.83-1.83s-1.83-0.067-1.83-1.83z"/>
            <path d="M4.606 1.562c0 1.264-1.331 1.331-1.331 1.331s1.331 0.033 1.331 1.331c0-1.264 1.331-1.331 1.331-1.331s-1.331-0.033-1.331-1.331z"/>
            <path d="M26.43 3.059c0 2.861-2.928 2.928-2.928 2.928s2.928 0.067 2.928 2.928c0-2.861 2.928-2.928 2.928-2.928s-2.928-0.067-2.928-2.928z"/>
            <path d="M27.827 20.857c0 1.763-1.83 1.83-1.83 1.83s1.83 0.067 1.83 1.83c0-1.763 1.83-1.83 1.83-1.83s-1.83-0.067-1.83-1.83z"/>
            <path d="M16.483 1.562c0 1.264-1.331 1.331-1.331 1.331s1.331 0.033 1.331 1.331c0-1.264 1.331-1.331 1.331-1.331s-1.331-0.033-1.331-1.331z"/>
            <path d="M5.571 22.554c0 3.16-3.26 3.26-3.26 3.26s3.26 0.1 3.26 3.26c0-3.16 3.227-3.26 3.227-3.26s-3.227-0.1-3.227-3.26z"/>
            <path d="M9.43 26.779c0 1.796-1.83 1.83-1.83 1.83s1.83 0.067 1.83 1.83c0-1.796 1.83-1.83 1.83-1.83s-1.83-0.033-1.83-1.83z"/>
            <path d="M24.6 24.75c0 1.796-1.83 1.83-1.83 1.83s1.83 0.067 1.83 1.83c0-1.796 1.83-1.83 1.83-1.83s-1.83-0.033-1.83-1.83z"/>
            <path d="M28.26 25.747c0 1.397-1.43 1.43-1.43 1.43s1.43 0.067 1.43 1.43c0-1.397 1.43-1.43 1.43-1.43s-1.43-0.033-1.43-1.43z"/>
            <path d="M21.34 2.061c0 1.397-1.397 1.43-1.397 1.43s1.397 0.067 1.397 1.43c0-1.397 1.43-1.43 1.43-1.43s-1.43-0.033-1.43-1.43z"/>
        </symbol>
        <symbol id="icon-info" viewBox="0 0 16 32">
            <path d="M2 16c1.105 0 2 0.895 2 2v8c0 1.105-0.895 2-2 2h-2v4h16v-4h-1.992c-1.102 0-2.008-0.895-2.008-2l-0.004-14h-11.996v4h2zM4 4c0-2.209 1.791-4 4-4s4 1.791 4 4c0 2.209-1.791 4-4 4s-4-1.791-4-4z"/>
        </symbol>

        <symbol id="icon-menu" viewBox="0 0 36 32">
            <path d="M0 0h36v2.921h-36v-2.921z"/>
            <path d="M0 14.539h36v2.921h-36v-2.921z"/>
            <path d="M0 29.080h36v2.921h-36v-2.921z"/>
        </symbol>
        <symbol id="icon-apple" viewBox="0 0 32 32">
            <path d="M24.734 17.003c-0.040-4.053 3.305-5.996 3.454-6.093-1.88-2.751-4.808-3.127-5.851-3.171-2.492-0.252-4.862 1.467-6.127 1.467-1.261 0-3.213-1.43-5.28-1.392-2.716 0.040-5.221 1.579-6.619 4.012-2.822 4.897-0.723 12.151 2.028 16.123 1.344 1.944 2.947 4.127 5.051 4.049 2.026-0.081 2.793-1.311 5.242-1.311s3.138 1.311 5.283 1.271c2.18-0.041 3.562-1.981 4.897-3.931 1.543-2.255 2.179-4.439 2.216-4.551-0.048-0.022-4.252-1.632-4.294-6.473zM20.705 5.11c1.117-1.355 1.871-3.235 1.665-5.11-1.609 0.066-3.559 1.072-4.713 2.423-1.036 1.199-1.942 3.113-1.699 4.951 1.796 0.14 3.629-0.913 4.747-2.264z"/>
        </symbol>
        <symbol id="icon-items-sm" viewBox="0 0 32 32">
            <path d="M9.333 9.333h2.667v2.667h-2.667v-2.667z"/>
            <path d="M9.333 14.667h2.667v2.667h-2.667v-2.667z"/>
            <path d="M9.333 20h2.667v2.667h-2.667v-2.667z"/>
            <path d="M14.667 9.333h2.667v2.667h-2.667v-2.667z"/>
            <path d="M14.667 14.667h2.667v2.667h-2.667v-2.667z"/>
            <path d="M14.667 20h2.667v2.667h-2.667v-2.667z"/>
            <path d="M20 9.333h2.667v2.667h-2.667v-2.667z"/>
            <path d="M20 14.667h2.667v2.667h-2.667v-2.667z"/>
            <path d="M20 20h2.667v2.667h-2.667v-2.667z"/>
        </symbol>
        <symbol id="icon-items-lg" viewBox="0 0 32 32">
            <path fill="#d9d9d9" style="fill: var(--color1, #d9d9d9)" d="M9.333 9.333h5.333v5.333h-5.333v-5.333z"/>
            <path fill="#d9d9d9" style="fill: var(--color1, #d9d9d9)" d="M9.333 17.333h5.333v5.333h-5.333v-5.333z"/>
            <path fill="#d9d9d9" style="fill: var(--color1, #d9d9d9)" d="M17.333 9.333h5.333v5.333h-5.333v-5.333z"/>
            <path fill="#d9d9d9" style="fill: var(--color1, #d9d9d9)" d="M17.333 17.333h5.333v5.333h-5.333v-5.333z"/>
        </symbol>
        <!--        launchers-->
        <symbol id="icon-ea" viewBox="0 0 32 32">
            <path fill="#ff4747" style="fill: var(--color1, #ff4747)" d="M32 16c0 8.837-7.163 16-16 16s-16-7.163-16-16c0-8.837 7.163-16 16-16s16 7.163 16 16z"/>
            <path fill="#fff" style="fill: var(--color2, #fff)" d="M19.55 11.122l-4.213 6.706h-4.672l1.078-1.681h2.8l1.069-1.681h-6.472l-1.069 1.681h1.534l-2.128 3.356h8.878l3.278-5.172 1.197 1.816h-1.078l-1.022 1.681h3.194l1.109 1.675h2.038l-5.522-8.381zM18.141 11.106h-6.887l-1.044 1.681h6.881l1.050-1.681z"/>
        </symbol>
        <symbol id="icon-origin" viewBox="0 0 32 32">
            <path d="M16.667 4.145c3.267 0.207 6.145 1.713 8.153 4.004l0.012 0.013c0.969 1.115 1.747 2.428 2.26 3.867l0.027 0.085c0.412 1.137 0.651 2.449 0.651 3.817 0 0.299-0.012 0.596-0.033 0.889l0.003-0.039c-0.045 0.896-0.192 1.737-0.428 2.541l0.020-0.077c-0.251 0.871-0.557 1.623-0.931 2.333l0.032-0.067c-0.645 1.243-1.296 2.296-2.015 3.296l0.055-0.080c-0.747 1.049-1.517 1.971-2.355 2.829l0.005-0.005c-0.829 0.849-1.713 1.636-2.651 2.357l-0.059 0.043c-0.868 0.665-1.851 1.317-2.875 1.903l-0.131 0.069-0.049 0.035c-0.036 0.020-0.080 0.032-0.125 0.032-0.007 0-0.013 0-0.021-0.001h0.001c-0.087-0.021-0.159-0.068-0.212-0.132v-0.001c-0.052-0.061-0.083-0.141-0.083-0.228 0-0.001 0-0.003 0-0.003v-0.001c0-0.040 0.005-0.079 0.017-0.115l-0.001 0.003c0.012-0.032 0.028-0.060 0.049-0.083 0.34-0.476 0.647-1.017 0.893-1.591l0.021-0.056c0.225-0.525 0.397-1.136 0.487-1.775l0.004-0.037c-0.001-0.045-0.020-0.085-0.051-0.113-0.027-0.031-0.067-0.051-0.112-0.051h-0.001c-0.352 0.043-0.704 0.071-1.067 0.083-0.069 0.003-0.149 0.004-0.231 0.004-0.295 0-0.585-0.020-0.869-0.057l0.033 0.004c-3.268-0.204-6.147-1.712-8.152-4.004l-0.012-0.013c-0.971-1.115-1.748-2.428-2.26-3.867l-0.027-0.084c-0.412-1.139-0.651-2.453-0.651-3.823 0-0.297 0.011-0.592 0.033-0.883l-0.003 0.039c0.045-0.896 0.192-1.737 0.428-2.541l-0.020 0.077c0.247-0.859 0.553-1.601 0.931-2.301l-0.031 0.061c0.645-1.249 1.299-2.309 2.024-3.315l-0.053 0.077c0.749-1.049 1.52-1.971 2.353-2.831l-0.005 0.005c0.831-0.849 1.715-1.635 2.652-2.356l0.059-0.044c0.869-0.667 1.851-1.319 2.875-1.904l0.129-0.068 0.051-0.033c0.036-0.023 0.080-0.035 0.128-0.035h0.017c0.085 0.021 0.157 0.069 0.211 0.133 0.052 0.059 0.083 0.137 0.083 0.223v0.021c0 0.036-0.005 0.071-0.017 0.104v-0.003c-0.011 0.032-0.027 0.059-0.048 0.081-0.341 0.476-0.649 1.019-0.895 1.593l-0.021 0.056c-0.224 0.525-0.395 1.136-0.484 1.772l-0.004 0.039c0.003 0.091 0.076 0.163 0.167 0.163h0.001q0.524-0.065 1.067-0.081c0.069-0.003 0.152-0.004 0.235-0.004 0.293 0 0.583 0.019 0.867 0.055l-0.033-0.004zM15.591 20.636c0.113 0.011 0.245 0.016 0.377 0.016 1.151 0 2.2-0.439 2.987-1.159l-0.004 0.003c0.908-0.787 1.5-1.917 1.568-3.189v-0.012c0.011-0.113 0.016-0.244 0.016-0.376 0-1.157-0.44-2.212-1.16-3.007l0.003 0.004c-0.779-0.915-1.916-1.504-3.192-1.549h-0.008c-0.112-0.011-0.244-0.016-0.376-0.016-1.157 0-2.212 0.439-3.007 1.159l0.004-0.004c-0.915 0.779-1.505 1.916-1.552 3.192v0.008c-0.011 0.113-0.016 0.245-0.016 0.379 0 1.155 0.435 2.208 1.148 3.005l-0.004-0.004c0.78 0.921 1.925 1.512 3.208 1.549h0.007z"/>
        </symbol>
        <symbol id="icon-battlenet" viewBox="0 0 32 32">
            <path d="M26.578 14.34c0 0 2.305 0.117 2.305-1.238 0-1.77-3.070-3.363-3.070-3.363s0.48-1.020 0.781-1.59c0.301-0.57 1.145-2.789 1.219-3.297 0.094-0.641-0.051-0.84-0.051-0.84-0.207 1.367-2.434 5.305-2.613 5.438-2.172-1.016-5.156-1.301-5.156-1.301s-2.922-6.148-5.672-6.148c-2.727 0-2.711 5.266-2.711 5.266s-0.77-1.492-1.738-1.492c-1.414 0-1.879 2.133-1.879 4.449-2.789 0-5.137 0.625-5.348 0.684-0.207 0.059-0.867 0.539-0.57 0.48 0.613-0.195 3.48-0.641 5.988-0.422 0.141 2.199 1.426 5.066 1.426 5.066s-2.758 3.992-2.758 6.84c0 0.75 0.328 2.121 2.305 2.121 1.66 0 3.523-0.996 3.871-1.195-0.305 0.434-0.531 1.266-0.531 1.648 0 0.313 0.188 1.199 1.465 1.199 1.641 0 3.477-1.258 3.477-1.258s1.734 2.875 3.215 4.191c0.398 0.355 0.781 0.422 0.781 0.422s-1.473-1.414-3.41-5.063c1.801-1.109 3.676-3.734 3.676-3.734s0.223 0.008 1.934 0.008c2.68 0 6.484-0.563 6.484-2.691 0.004-2.195-3.418-4.18-3.418-4.18zM26.875 13.016c0 0.777-0.738 0.77-0.738 0.77l-0.563 0.035c0 0-1.066-0.559-1.715-0.824 0 0 1.004-1.543 1.238-1.973 0.176 0.105 1.777 1.105 1.777 1.992zM15.66 5.098c1.262 0 3.059 2.969 3.059 2.969s-2.805-0.25-5.113 1.105c0.063-2.137 0.781-4.074 2.055-4.074zM10.672 7.504c0.398 0 0.789 0.488 0.953 0.898 0 0.273 0.141 1.867 0.141 1.867l-2.313-0.090c0-2.082 0.816-2.676 1.219-2.676zM10.43 21.977c-1.266 0-1.523-0.703-1.523-1.336 0-1.434 1.145-3.441 1.145-3.441s1.285 2.699 3.523 3.836c-1.109 0.652-2.027 0.941-3.145 0.941zM14.535 24.801c-0.887 0-0.996-0.574-0.996-0.707 0-0.41 0.324-0.898 0.324-0.898s1.488-1.004 1.582-1.113l1.102 2.055c0 0-1.125 0.664-2.012 0.664zM17.301 23.684c-0.539-0.941-0.938-1.926-0.938-1.926s2.215 0.141 3.406-1.086c-0.742 0.332-1.926 0.754-3.301 0.625 2.875-2.531 4.555-4.367 5.973-6.262-0.121-0.148-0.77-0.602-0.93-0.676-0.855 1.031-4.188 4.59-7.273 6.352-3.906-2.129-4.727-8.391-4.809-9.691l2.133 0.203c0 0-0.801 1.422-0.801 2.469 0 1.043 0.125 1.098 0.125 1.098s-0.027-1.82 1.098-3.227c0.859 4.563 1.754 6.898 2.449 8.293 0.355-0.148 1.016-0.441 1.016-0.441s-1.969-5.676-1.859-9.516c0.895-0.477 2.219-0.969 3.711-0.969 3.93 0 7.090 1.688 7.090 1.688l-1.234 1.727c0 0-1.102-1.992-2.66-2.348 0.82 0.609 1.742 1.418 2.219 2.578-3.258-1.27-7.188-1.941-8.449-2.090-0.109 0.465-0.094 1.129-0.094 1.129s5.27 0.973 9.105 3.164c-0.027 4.797-5.254 8.48-5.977 8.906zM22.293 20.098c0 0 1.637-2.145 1.609-4.988 0 0 2.645 1.637 2.645 3.234 0 1.781-4.254 1.754-4.254 1.754z"/>
        </symbol>
        <symbol id="icon-wargaming" viewBox="0 0 31 32">
            <path d="M15.098 0.009c3.344-0.113 6.722 0.907 9.454 2.897 3.299 2.355 5.639 6.065 6.382 10.12 0.604 2.935 0.26 6.027-0.784 8.813-1.367 3.647-4.086 6.729-7.478 8.493-2.193 1.129-4.649 1.799-7.115 1.648-2.055 0.122-4.105-0.353-5.995-1.166-3.818-1.634-6.938-4.902-8.447-8.858-1.183-3.037-1.45-6.452-0.68-9.63 0.875-3.872 3.238-7.354 6.446-9.572 2.412-1.693 5.3-2.64 8.217-2.745zM12.126 3.777c-3.274 0.974-6.11 3.397-7.628 6.533-1.18 2.37-1.552 5.128-1.157 7.751 0.065 0.317 0.036 0.677 0.235 0.949 1.243-2.851 2.733-5.716 5.126-7.731 2.294-1.859 5.063-3.28 8.037-3.335-0.602-0.735-1.208-1.467-1.826-2.19 2.133 0.617 4.259 1.259 6.371 1.949-1.45 1.493-2.896 2.99-4.406 4.418 0.049-0.919 0.117-1.839 0.14-2.76-1.041 0.187-2.009 0.7-2.815 1.394-1.756 1.523-2.79 3.737-3.433 5.963-0.662 2.288-0.938 4.697-0.823 7.080 1.646-0.193 3.242-0.774 4.68-1.611 1.755-1.024 3.24-2.647 3.837-4.658-0.756 0.125-1.506 0.295-2.25 0.483 1.201-1.567 2.43-3.113 3.628-4.684 1.031 1.751 2.084 3.49 2.987 5.316-0.802-0.319-1.557-0.75-2.375-1.022 0.839 3.439 0.654 7.154-0.682 10.434 3.591-1.282 6.514-4.366 7.662-8.089 1.023-3.257 0.734-6.95-0.868-9.96-1.356-2.626-3.646-4.719-6.329-5.823-2.558-1.061-5.464-1.182-8.111-0.409z"/>
        </symbol>
        <symbol id="icon-epicgames" viewBox="0 0 32 32">
            <path d="M4.717 0c-1.829 0-2.504 0.675-2.504 2.504v22.087c0 0.207 0.009 0.399 0.025 0.575 0.045 0.403 0.049 0.791 0.423 1.229 0.035 0.051 0.413 0.328 0.413 0.328 0.201 0.101 0.343 0.171 0.573 0.267l11.112 4.656c0.575 0.263 0.817 0.368 1.235 0.353h0.005c0.423 0.015 0.665-0.091 1.24-0.353l11.111-4.656c0.232-0.096 0.368-0.165 0.575-0.267 0 0 0.379-0.283 0.413-0.328 0.373-0.439 0.377-0.827 0.423-1.229 0.016-0.176 0.027-0.368 0.027-0.573v-22.089c-0.001-1.828-0.677-2.503-2.507-2.503zM22.525 4.147h0.907c1.512 0 2.248 0.736 2.248 2.263v2.505h-1.829v-2.404c0-0.489-0.227-0.716-0.7-0.716h-0.312c-0.489 0-0.716 0.227-0.716 0.716v7.751c0 0.488 0.227 0.715 0.716 0.715h0.347c0.469 0 0.696-0.227 0.696-0.715v-2.773h1.835v2.859c0 1.527-0.752 2.277-2.268 2.277h-0.923c-1.521 0-2.267-0.756-2.267-2.277v-7.921c0-1.523 0.745-2.279 2.267-2.279zM6.275 4.248h4.152v1.703h-2.288v3.472h2.203v1.699h-2.203v3.699h2.319v1.699h-4.183zM11.364 4.248h2.928c1.516 0 2.267 0.756 2.267 2.283v3.26c0 1.527-0.751 2.279-2.267 2.279h-1.059v4.449h-1.869zM17.401 4.248h1.864v12.271h-1.864zM13.228 5.901v4.52h0.772c0.468 0 0.695-0.227 0.695-0.72v-3.080c0-0.493-0.227-0.72-0.695-0.72zM8.088 19.44h0.277l0.061 0.009h0.1l0.051 0.016h0.051l0.051 0.015 0.049 0.011 0.045 0.009 0.045 0.011 0.045 0.009 0.051 0.016 0.040 0.009 0.040 0.016 0.051 0.015 0.040 0.020 0.052 0.020 0.045 0.020 0.040 0.027 0.051 0.019 0.035 0.027 0.051 0.024 0.040 0.027 0.045 0.024 0.040 0.031 0.040 0.025 0.040 0.029 0.041 0.031 0.040 0.035 0.040 0.031-0.029 0.040-0.036 0.036-0.029 0.040-0.036 0.040-0.029 0.036-0.031 0.035-0.036 0.040-0.029 0.040-0.031 0.036-0.035 0.040-0.031 0.040-0.036 0.040-0.029 0.036-0.031 0.040-0.035 0.040-0.031 0.041-0.035 0.035-0.031 0.040-0.040-0.029-0.040-0.035-0.040-0.027-0.047-0.029-0.035-0.025-0.045-0.025-0.040-0.025-0.047-0.025-0.080-0.040-0.040-0.015-0.045-0.016-0.051-0.013-0.040-0.011-0.101-0.021-0.051-0.004h-0.055l-0.061-0.011h-0.1l-0.051 0.005h-0.051l-0.051 0.015-0.045 0.011-0.045 0.015-0.049 0.015-0.040 0.020-0.051 0.021-0.076 0.051-0.040 0.024-0.036 0.031-0.035 0.031-0.036 0.029-0.029 0.036-0.040 0.035-0.051 0.076-0.031 0.040-0.020 0.045-0.027 0.040-0.024 0.045-0.015 0.045-0.021 0.045-0.013 0.051-0.007 0.051-0.015 0.045-0.011 0.056v0.049l-0.009 0.051v0.12l0.005 0.052 0.004 0.045 0.005 0.049 0.011 0.051 0.015 0.040 0.005 0.051 0.015 0.040 0.016 0.040 0.020 0.052 0.025 0.049 0.020 0.040 0.025 0.040 0.029 0.041 0.031 0.040 0.025 0.036 0.040 0.035 0.031 0.036 0.035 0.029 0.080 0.061 0.041 0.025 0.040 0.024 0.045 0.021 0.051 0.020 0.040 0.020 0.051 0.015 0.051 0.016 0.051 0.009 0.049 0.011 0.051 0.005 0.061 0.004h0.165l0.061-0.009h0.049l0.051-0.016 0.051-0.009 0.051-0.016 0.045-0.009 0.045-0.020 0.040-0.020 0.051-0.021 0.031-0.020 0.040-0.025v-0.463h-0.736v-0.747h1.663v1.664l-0.035 0.029-0.040 0.031-0.036 0.025-0.040 0.031-0.040 0.024-0.040 0.031-0.040 0.025-0.041 0.025-0.051 0.025-0.045 0.025-0.040 0.025-0.051 0.020-0.040 0.025-0.152 0.060-0.045 0.020-0.045 0.015-0.045 0.016-0.049 0.015-0.045 0.015-0.051 0.016-0.045 0.009-0.101 0.021-0.051 0.009-0.049 0.005-0.101 0.011-0.060 0.004-0.051 0.005-0.056 0.005h-0.261l-0.056-0.011h-0.051l-0.049-0.009h-0.051l-0.051-0.016-0.051-0.009-0.051-0.011-0.049-0.009-0.040-0.016-0.051-0.009-0.051-0.016-0.045-0.020-0.045-0.015-0.051-0.020-0.045-0.020-0.051-0.020-0.040-0.021-0.051-0.024-0.035-0.027-0.051-0.024-0.036-0.027-0.040-0.024-0.080-0.061-0.045-0.029-0.031-0.031-0.040-0.031-0.036-0.035-0.035-0.031-0.036-0.035-0.029-0.036-0.036-0.035-0.029-0.040-0.031-0.036-0.025-0.040-0.031-0.040-0.025-0.040-0.024-0.040-0.027-0.047-0.024-0.040-0.040-0.091-0.021-0.045-0.020-0.045-0.015-0.040-0.020-0.045-0.011-0.045-0.015-0.045-0.011-0.051-0.015-0.045-0.011-0.051-0.004-0.045-0.011-0.051-0.005-0.045-0.004-0.051-0.005-0.049-0.005-0.051v-0.277l0.011-0.051v-0.055l0.013-0.051v-0.051l0.016-0.051 0.016-0.049 0.009-0.051 0.015-0.045 0.016-0.051 0.015-0.045 0.020-0.051 0.020-0.045 0.021-0.045 0.040-0.091 0.025-0.045 0.025-0.040 0.024-0.040 0.027-0.040 0.024-0.040 0.031-0.041 0.031-0.040 0.029-0.040 0.036-0.036 0.029-0.035 0.031-0.036 0.040-0.035 0.031-0.036 0.040-0.031 0.036-0.035 0.040-0.031 0.040-0.029 0.040-0.027 0.040-0.029 0.040-0.025 0.041-0.025 0.045-0.025 0.051-0.025 0.040-0.024 0.051-0.021 0.045-0.020 0.051-0.025 0.040-0.013 0.051-0.016 0.045-0.020 0.045-0.011 0.045-0.015 0.051-0.011 0.045-0.015 0.049-0.011h0.051l0.051-0.015h0.051l0.051-0.011h0.049zM24.073 19.449h0.276l0.061 0.011h0.1l0.051 0.015h0.060l0.051 0.016 0.045 0.009 0.051 0.011 0.051 0.009 0.045 0.011 0.051 0.015 0.049 0.016 0.040 0.009 0.051 0.020 0.051 0.016 0.040 0.020 0.101 0.040 0.045 0.027 0.036 0.019 0.049 0.027 0.045 0.024 0.040 0.025 0.047 0.031 0.040 0.024 0.080 0.061 0.040 0.029-0.029 0.040-0.025 0.041-0.031 0.040-0.029 0.040-0.031 0.045-0.025 0.040-0.031 0.040-0.029 0.041-0.027 0.040-0.029 0.040-0.031 0.040-0.029 0.041-0.027 0.045-0.029 0.040-0.035 0.040-0.027 0.040-0.029 0.041-0.040-0.031-0.045-0.025-0.040-0.024-0.040-0.031-0.047-0.020-0.040-0.027-0.051-0.019-0.035-0.020-0.051-0.021-0.040-0.020-0.040-0.015-0.045-0.020-0.051-0.015-0.051-0.016-0.051-0.015-0.055-0.011-0.051-0.009-0.051-0.011-0.051-0.005-0.049-0.005-0.045-0.004h-0.112l-0.055 0.009-0.051 0.011-0.051 0.009-0.040 0.021-0.035 0.020-0.045 0.040-0.031 0.045-0.020 0.045v0.125l0.025 0.056 0.020 0.031 0.035 0.035 0.051 0.027 0.040 0.024 0.101 0.040 0.065 0.020 0.040 0.011 0.040 0.015 0.051 0.011 0.040 0.015 0.051 0.011 0.056 0.015 0.055 0.015 0.056 0.016 0.056 0.009 0.049 0.016 0.056 0.015 0.051 0.011 0.049 0.015 0.051 0.015 0.051 0.016 0.051 0.015 0.045 0.015 0.051 0.016 0.049 0.020 0.051 0.025 0.051 0.020 0.101 0.051 0.040 0.025 0.040 0.024 0.045 0.031 0.036 0.027 0.045 0.035 0.111 0.111 0.025 0.040 0.035 0.051 0.025 0.035 0.020 0.051 0.025 0.035 0.015 0.051 0.016 0.040 0.009 0.051 0.011 0.051 0.009 0.051 0.005 0.051 0.005 0.049v0.127l-0.005 0.055-0.005 0.051-0.004 0.056-0.011 0.051-0.015 0.049-0.011 0.051-0.015 0.051-0.020 0.045-0.020 0.040-0.021 0.045-0.024 0.040-0.031 0.040-0.027 0.040-0.024 0.041-0.035 0.036-0.031 0.035-0.036 0.031-0.040 0.035-0.035 0.031-0.040 0.031-0.040 0.024-0.041 0.031-0.091 0.045-0.051 0.027-0.051 0.019-0.049 0.020-0.051 0.016-0.051 0.015-0.040 0.015-0.101 0.021-0.040 0.009-0.051 0.011h-0.051l-0.049 0.009h-0.051l-0.051 0.011h-0.373l-0.049-0.005-0.051-0.005-0.056-0.004-0.051-0.011-0.049-0.005-0.051-0.009-0.051-0.011-0.056-0.015-0.049-0.011-0.051-0.015-0.051-0.011-0.051-0.015-0.049-0.016-0.051-0.020-0.045-0.015-0.051-0.015-0.051-0.021-0.040-0.020-0.051-0.020-0.040-0.025-0.051-0.020-0.045-0.025-0.035-0.025-0.051-0.025-0.036-0.024-0.045-0.027-0.040-0.029-0.040-0.031-0.040-0.029-0.040-0.031-0.036-0.031-0.040-0.035 0.029-0.040 0.036-0.036 0.031-0.040 0.035-0.040 0.031-0.036 0.029-0.040 0.036-0.040 0.031-0.036 0.035-0.040 0.031-0.035 0.035-0.040 0.031-0.040 0.029-0.036 0.036-0.040 0.031-0.040 0.035-0.036 0.036-0.040 0.035 0.029 0.051 0.031 0.035 0.031 0.051 0.029 0.040 0.027 0.045 0.029 0.040 0.025 0.047 0.020 0.040 0.025 0.045 0.020 0.051 0.020 0.040 0.020 0.051 0.015 0.040 0.021 0.051 0.013 0.049 0.016 0.051 0.016 0.051 0.009 0.051 0.011 0.051 0.009h0.055l0.051 0.016h0.277l0.051-0.011 0.049-0.011 0.040-0.009 0.040-0.015 0.036-0.021 0.045-0.029 0.027-0.036 0.024-0.040 0.015-0.051v-0.116l-0.020-0.049-0.029-0.040-0.031-0.031-0.045-0.031-0.036-0.020-0.049-0.020-0.051-0.020-0.060-0.027-0.036-0.009-0.040-0.011-0.051-0.013-0.040-0.011-0.051-0.016-0.051-0.009-0.055-0.016-0.051-0.009-0.056-0.016-0.049-0.009-0.051-0.016-0.051-0.009-0.051-0.016-0.051-0.013-0.049-0.011-0.045-0.016-0.045-0.015-0.045-0.016-0.051-0.020-0.056-0.020-0.051-0.020-0.049-0.020-0.101-0.051-0.035-0.025-0.051-0.025-0.036-0.029-0.045-0.027-0.029-0.029-0.036-0.035-0.040-0.036-0.031-0.035-0.029-0.036-0.027-0.035-0.024-0.040-0.027-0.045-0.019-0.036-0.016-0.040-0.015-0.045-0.015-0.040-0.011-0.051-0.009-0.045v-0.051l-0.011-0.051v-0.216l0.011-0.101 0.009-0.040 0.011-0.051 0.015-0.040 0.011-0.051 0.020-0.040 0.020-0.051 0.045-0.091 0.025-0.040 0.035-0.040 0.027-0.040 0.040-0.040 0.035-0.036 0.031-0.040 0.045-0.036 0.029-0.025 0.045-0.031 0.040-0.029 0.040-0.027 0.051-0.024 0.040-0.020 0.052-0.025 0.040-0.020 0.051-0.016 0.049-0.020 0.051-0.015 0.036-0.011 0.049-0.009 0.040-0.011 0.051-0.009 0.051-0.011 0.101-0.011 0.051-0.004zM11.757 19.485h0.943l0.060 0.136 0.015 0.051 0.040 0.091 0.021 0.045 0.020 0.045 0.015 0.045 0.025 0.049 0.020 0.045 0.020 0.047 0.011 0.045 0.020 0.045 0.025 0.045 0.020 0.049 0.020 0.045 0.015 0.045 0.020 0.045 0.027 0.045 0.013 0.045 0.021 0.051 0.015 0.051 0.020 0.040 0.027 0.051 0.019 0.040 0.020 0.051 0.016 0.051 0.015 0.040 0.045 0.091 0.020 0.051 0.015 0.040 0.021 0.051 0.025 0.051 0.020 0.045 0.029 0.091 0.020 0.045 0.027 0.045 0.019 0.049 0.021 0.047 0.013 0.045 0.021 0.045 0.040 0.091 0.020 0.049 0.016 0.045 0.020 0.045 0.025 0.045 0.040 0.091 0.011 0.051 0.020 0.045 0.025 0.045 0.020 0.045 0.015 0.045 0.020 0.045 0.020 0.051 0.027 0.051 0.013 0.040 0.021 0.051 0.015 0.040 0.020 0.051 0.045 0.091 0.015 0.051 0.021 0.040 0.015 0.051 0.025 0.040 0.020 0.051 0.015 0.051 0.020 0.040 0.021 0.051 0.024 0.040 0.021 0.051 0.013 0.049 0.016 0.040 0.020 0.051 0.027 0.040h-1.044l-0.027-0.044-0.013-0.045-0.021-0.045-0.020-0.051-0.015-0.045-0.040-0.091-0.016-0.045-0.040-0.091-0.015-0.045-0.020-0.051-0.020-0.045-0.016-0.045-0.020-0.045h-1.447l-0.020 0.051-0.015 0.040-0.020 0.051-0.025 0.049-0.011 0.040-0.020 0.052-0.020 0.040-0.015 0.051-0.020 0.040-0.020 0.051-0.016 0.040-0.020 0.051-0.020 0.049-0.020 0.040-0.015 0.051h-1.033l0.020-0.049 0.040-0.091 0.016-0.051 0.013-0.045 0.027-0.045 0.040-0.091 0.015-0.045 0.020-0.051 0.027-0.045 0.019-0.045 0.016-0.045 0.015-0.045 0.020-0.045 0.027-0.051 0.019-0.045 0.020-0.045 0.016-0.045 0.040-0.091 0.040-0.101 0.016-0.040 0.020-0.051 0.025-0.040 0.020-0.051 0.015-0.049 0.015-0.040 0.020-0.051 0.027-0.040 0.019-0.051 0.021-0.040 0.013-0.051 0.021-0.051 0.025-0.040 0.015-0.051 0.020-0.040 0.016-0.051 0.020-0.051 0.025-0.040 0.020-0.051 0.015-0.040 0.020-0.051 0.016-0.040 0.025-0.051 0.020-0.051 0.020-0.045 0.015-0.045 0.020-0.045 0.027-0.045 0.019-0.045 0.011-0.051 0.040-0.091 0.025-0.045 0.020-0.045 0.015-0.045 0.021-0.051 0.020-0.049 0.020-0.040 0.020-0.051 0.015-0.040 0.040-0.101 0.027-0.040 0.019-0.051 0.016-0.040 0.015-0.051 0.020-0.040 0.027-0.051 0.019-0.051 0.016-0.040 0.020-0.051 0.045-0.091 0.015-0.051 0.015-0.040 0.021-0.051zM14.68 19.511h1.033l0.029 0.040 0.027 0.045 0.029 0.040 0.025 0.045 0.025 0.040 0.025 0.045 0.024 0.040 0.031 0.047 0.051 0.080 0.025 0.045 0.025 0.040 0.035 0.045 0.020 0.040 0.027 0.047 0.029 0.040 0.031 0.040 0.020 0.045 0.029 0.040 0.027 0.045 0.019 0.040 0.036 0.047 0.025 0.040 0.025 0.045 0.025 0.040 0.024 0.040 0.031 0.045 0.025 0.040 0.025 0.047 0.025 0.040 0.025 0.045 0.029 0.040 0.027 0.045 0.024 0.040 0.031-0.040 0.020-0.051 0.031-0.035 0.029-0.051 0.027-0.035 0.019-0.051 0.036-0.036 0.025-0.049 0.020-0.036 0.031-0.040 0.029-0.051 0.027-0.035 0.024-0.051 0.025-0.036 0.031-0.049 0.024-0.036 0.027-0.051 0.024-0.035 0.027-0.040 0.029-0.051 0.025-0.036 0.025-0.049 0.029-0.036 0.027-0.051 0.024-0.035 0.031-0.040 0.025-0.051 0.029-0.036 0.027-0.049 0.024-0.036 0.027-0.051 0.029-0.035 0.025-0.051 0.025-0.035h1.043v3.719h-0.979v-2.187l-0.024 0.035-0.031 0.051-0.025 0.035-0.031 0.040-0.025 0.051-0.029 0.036-0.027 0.040-0.029 0.051-0.025 0.035-0.025 0.040-0.035 0.040-0.025 0.052-0.031 0.035-0.025 0.040-0.024 0.051-0.031 0.035-0.025 0.040-0.031 0.051-0.025 0.036-0.029 0.040-0.027 0.051-0.024 0.035-0.031 0.040-0.025 0.051-0.029 0.036-0.031 0.040-0.025 0.040-0.025 0.051-0.031 0.036-0.029 0.040-0.020 0.051-0.036 0.035-0.025 0.040-0.029 0.051-0.027 0.036h-0.019l-0.031-0.045-0.025-0.040-0.031-0.047-0.025-0.040-0.029-0.045-0.027-0.040-0.029-0.045-0.025-0.040-0.029-0.045-0.027-0.040-0.035-0.047-0.020-0.040-0.031-0.045-0.029-0.040-0.027-0.045-0.029-0.040-0.025-0.051-0.029-0.040-0.027-0.045-0.029-0.040-0.025-0.047-0.031-0.040-0.024-0.045-0.031-0.040-0.025-0.045-0.031-0.040-0.025-0.045-0.029-0.040-0.027-0.047-0.029-0.040-0.025-0.045-0.035-0.040-0.020-0.045-0.031-0.040v2.192h-0.967v-3.68zM19.307 19.511h2.932v0.84h-1.96v0.596h1.763v0.791h-1.761v0.64h1.985v0.841h-2.953zM12.216 20.649l-0.020 0.051-0.016 0.040-0.020 0.051-0.020 0.049-0.015 0.045-0.020 0.045-0.021 0.051-0.020 0.051-0.015 0.040-0.020 0.051-0.020 0.040-0.016 0.051-0.020 0.051-0.020 0.040-0.015 0.051-0.020 0.040-0.020 0.051-0.021 0.051-0.013 0.040-0.021 0.051-0.020 0.051-0.015 0.040-0.021 0.051h0.857l-0.020-0.051-0.016-0.045-0.020-0.051-0.020-0.045-0.015-0.045-0.020-0.045-0.020-0.051-0.016-0.045-0.040-0.091-0.015-0.045-0.020-0.051-0.016-0.045-0.040-0.091-0.015-0.045-0.020-0.049-0.020-0.051-0.016-0.040-0.040-0.101-0.015-0.045zM10.683 27.613h10.684l-5.453 1.8z"/>
        </symbol>
        <symbol id="icon-steam" viewBox="0 0 32 32">
            <path d="M15.972 0c-8.401 0-15.291 6.48-15.943 14.716l8.576 3.544c0.727-0.495 1.604-0.787 2.549-0.787 0.084 0 0.167 0.005 0.251 0.008l3.815-5.523v-0.079c0-3.327 2.704-6.032 6.032-6.032 3.325 0 6.032 2.708 6.032 6.036s-2.707 6.033-6.032 6.033h-0.14l-5.435 3.881c0 0.069 0.005 0.14 0.005 0.212 0 2.5-2.020 4.528-4.52 4.528-2.18 0-4.021-1.564-4.441-3.636l-6.14-2.543c1.901 6.716 8.067 11.64 15.391 11.64 8.836 0 15.999-7.164 15.999-16s-7.164-16-15.999-16zM10.053 24.28l-1.964-0.813c0.349 0.724 0.952 1.332 1.752 1.667 1.729 0.719 3.724-0.101 4.443-1.833 0.351-0.84 0.352-1.759 0.007-2.599s-1-1.495-1.836-1.844c-0.832-0.347-1.72-0.332-2.504-0.040l2.031 0.84c1.275 0.533 1.879 2 1.345 3.273-0.529 1.276-1.996 1.88-3.272 1.349zM25.273 11.876c0-2.216-1.804-4.020-4.020-4.020-2.22 0-4.020 1.804-4.020 4.020 0 2.22 1.8 4.020 4.020 4.020 2.217 0 4.020-1.8 4.020-4.020zM18.243 11.869c0-1.669 1.351-3.021 3.020-3.021 1.665 0 3.021 1.352 3.021 3.021 0 1.668-1.356 3.020-3.021 3.020-1.671 0-3.020-1.352-3.020-3.020z"/>
        </symbol>
        <symbol id="icon-copy" viewBox="0 0 32 32">
            <path fill="#fff" style="fill: var(--color1, #fff)" d="M6.667 29.333c-0.733 0-1.361-0.261-1.884-0.783s-0.783-1.151-0.783-1.884v-18.667h2.667v18.667h14.667v2.667h-14.667zM12 23.999c-0.733 0-1.361-0.261-1.883-0.783s-0.784-1.151-0.784-1.884v-16c0-0.733 0.261-1.361 0.784-1.884s1.149-0.783 1.883-0.783h12c0.733 0 1.361 0.261 1.884 0.783s0.783 1.151 0.783 1.884v16c0 0.733-0.261 1.361-0.783 1.884s-1.151 0.783-1.884 0.783h-12zM12 21.333h12v-16h-12v16zM12 21.333v0z"/>
        </symbol>
    </defs>

<script xmlns="" type="text/javascript" src="chrome-extension://hejbmebodbijjdhflfknehhcgaklhano/../window/testing-library.js"/></svg>